<svg width="582" height="478" viewBox="0 0 582 478" fill="none" xmlns="http://www.w3.org/2000/svg">
<path d="M241.574 193.865L163.027 148.729L84.4791 193.865V284.135L163.027 329.271L241.574 284.135V193.865ZM581.5 193.865L502.952 148.729L424.405 193.865L424.405 284.135L502.952 329.271L581.5 284.135V193.865ZM411.537 193.865L332.99 148.729L254.442 193.865V284.135L332.99 329.271L411.537 284.135L411.537 193.865ZM326.253 342.017L248.008 296.881L169.763 342.017V432.287L248.008 477.423L326.253 432.287V342.017ZM495.516 342.017L417.272 296.881L339.027 342.017V432.287L417.272 477.423L495.516 432.287V342.017ZM417.272 0.577227L339.027 45.7128V135.983L417.272 181.119L495.516 135.983V45.7128L417.272 0.577227ZM78.7448 0.577231L0.5 45.7128V135.983L78.7448 181.119L156.99 135.983V45.7128L78.7448 0.577231ZM156.99 342.017L78.7448 296.881L0.5 342.017L0.5 432.287L78.7448 477.423L156.99 432.287V342.017ZM248.008 0.577222L169.763 45.7128V135.983L248.008 181.119L326.253 135.983V45.7128L248.008 0.577222Z" stroke="white"/>
</svg>
