<svg width="204" height="71" viewBox="0 0 204 71" fill="none" xmlns="http://www.w3.org/2000/svg">
<path fill-rule="evenodd" clip-rule="evenodd" d="M57.9791 2.44648C57.8078 3.27418 57.5427 4.08631 57.2914 4.89303C57.1805 5.24881 56.9852 5.67722 57.12 6.05141C57.3387 6.65868 58.1495 7.13949 58.6229 7.54291C59.8277 8.56931 61.0194 9.61141 62.2284 10.6329C62.7122 11.0416 63.5052 11.4941 63.7477 12.1045C63.9237 12.5477 63.6493 13.0974 63.5193 13.5204C63.2453 14.4113 62.9533 15.3172 62.7434 16.2245H66.2201C66.663 16.2245 67.3163 16.3416 67.7263 16.1468C68.1175 15.9607 68.2046 15.3098 68.3164 14.9368C68.6046 13.9765 68.7461 12.7093 69.5737 12.0537C70.2634 11.5074 71.1246 11.1251 71.8858 10.6875C73.5146 9.75138 75.1458 8.81937 76.779 7.89084C77.6289 7.40758 78.9332 6.94338 79.5461 6.16717C80.2895 5.22564 80.4754 3.58503 80.7707 2.44648H77.294C76.8588 2.44648 76.2039 2.32737 75.8028 2.52412C75.2014 2.81925 75.2615 3.96463 74.7048 4.42819C74.1432 4.89599 73.4179 5.17671 72.7872 5.53699C71.6238 6.20143 70.4841 6.9117 69.3105 7.55785C68.8194 7.82813 67.9683 8.53724 67.379 8.41299C66.9855 8.32993 66.643 7.92264 66.3489 7.67181L64.0311 5.68237C63.6496 5.35453 62.9715 4.9748 62.7889 4.48484C62.5811 3.92729 63.0785 3.03391 63.1297 2.44648H57.9791Z" fill="#FF3B6E"/>
<path fill-rule="evenodd" clip-rule="evenodd" d="M78.1953 16.2246H81.8008C82.2096 16.2246 82.9078 16.3542 83.2554 16.0922C83.804 15.6789 83.9855 14.1619 84.1732 13.5205C84.8712 11.1344 85.9755 8.64475 86.3076 6.18081H98.7979C98.2691 7.48019 97.2879 7.66536 96.0938 8.20167C93.1694 9.51534 89.7181 9.01367 86.5651 9.01367C86.274 10.2722 85.7974 11.4766 85.535 12.7479H91.587C92.9114 12.7479 94.2768 12.8461 95.5787 12.5529C96.9084 12.2536 98.1951 11.5192 99.4417 10.9813C100.44 10.5506 102.127 10.1857 102.864 9.37099C103.359 8.82502 103.478 7.89907 103.673 7.21094C104.112 5.66175 104.847 4.05771 104.979 2.44659H84.1186C83.6554 2.44659 82.7977 2.28396 82.4064 2.57896C82.1159 2.79787 82.0632 3.28087 81.9656 3.60549L81.193 6.18081C80.1949 9.50761 78.978 12.8416 78.1953 16.2246Z" fill="#FF3B6E"/>
<path fill-rule="evenodd" clip-rule="evenodd" d="M49.6095 7.46838H39.3082C39.0114 7.46903 38.6057 7.41314 38.3505 7.60076C38.0647 7.81103 37.9954 8.31064 37.8917 8.62728C37.6149 9.47276 37.3195 10.3364 37.1191 11.2026H48.4506C47.7645 12.7967 47.434 14.5714 46.9054 16.2245H50.5108C50.9334 16.2245 51.6252 16.3511 51.99 16.0921C52.2914 15.8782 52.3445 15.3934 52.4455 15.0656C52.6961 14.2519 52.9342 13.4345 53.1789 12.619L55.1104 6.18072C55.4762 4.96118 55.9905 3.70635 56.1765 2.4465H52.5711C52.1678 2.4465 51.4598 2.31465 51.1196 2.57888C50.7989 2.82778 50.7141 3.49415 50.6035 3.86293C50.2502 5.04037 49.7886 6.25103 49.6095 7.46838Z" fill="#FF3B6E"/>
<path fill-rule="evenodd" clip-rule="evenodd" d="M33.5131 2.44648C32.4357 7.10369 30.3635 11.5327 29.3926 16.2245H34.5432C35.2753 13.06 36.4063 9.93667 37.34 6.82452C37.7634 5.41338 38.4147 3.91956 38.535 2.44648H33.5131Z" fill="#FF3B6E"/>
<path fill-rule="evenodd" clip-rule="evenodd" d="M108.97 2.4466L108.087 2.40231C107.766 2.39857 107.454 2.43167 107.258 2.57897C106.858 2.87861 106.787 3.67323 106.649 4.12056C106.244 5.43668 105.773 6.76349 105.493 8.11232C106.237 8.422 106.916 8.89998 107.682 9.14244V9.39998C106.871 9.63188 105.4 10.0217 104.811 10.6424C104.442 11.0317 104.369 11.7381 104.206 12.2328C103.771 13.5495 103.328 14.8644 103.047 16.2246H125.838C125.904 15.9081 125.984 15.5956 126.073 15.2851L126.634 13.43C126.723 13.1194 126.803 12.8069 126.869 12.4904H110.515C112.631 11.2863 115.063 10.6737 117.211 9.52874C116.645 8.84538 115.791 8.48921 115.022 8.07253C113.933 7.48213 112.838 6.73323 111.674 6.30959C112.957 5.93037 114.588 6.18082 115.923 6.18082H127.384C127.765 6.18082 128.385 6.29324 128.71 6.04845C129 5.82955 129.052 5.34642 129.15 5.02193C129.403 4.18057 129.753 3.32466 129.83 2.4466H108.97Z" fill="#FF3B6E"/>
<path fill-rule="evenodd" clip-rule="evenodd" d="M101.358 33.7382L101.488 33.3504C115.463 33.3387 129.858 31.2035 142.964 26.2137C145.252 25.3426 147.507 24.3028 149.66 23.1381C150.23 22.8297 150.79 22.4926 151.349 22.1552C152.189 21.6493 153.029 21.1427 153.909 20.7314C152.305 19.2879 150.13 18.2144 148.143 17.2336C147.872 17.0997 147.604 16.9676 147.342 16.8366C141.821 14.0761 136.101 12.1298 130.087 10.7713C128.366 10.3824 126.568 10.0675 124.808 9.92607C124.559 9.90602 124.285 9.89459 124 9.88267C123.041 9.8426 121.949 9.79698 121.203 9.39993C122.575 8.96601 124.117 8.9573 125.62 8.9488C126.309 8.94491 126.989 8.94107 127.641 8.89645C127.859 8.8815 128.144 8.91437 128.445 8.94901C128.99 9.01188 129.586 9.08055 129.923 8.87946C130.289 8.66016 130.432 8.05458 130.547 7.57117C130.578 7.43834 130.607 7.31474 130.639 7.21091C130.765 6.78992 130.896 6.36842 131.027 5.94615C131.387 4.78714 131.749 3.62235 132.019 2.44656H154.682C154.654 3.72972 154.175 5.09114 153.721 6.38208C153.56 6.84119 153.402 7.29138 153.268 7.72597C153.223 7.8725 153.184 8.0349 153.143 8.20309C153.021 8.70371 152.887 9.25567 152.556 9.59321C152.244 9.91099 151.72 10.0987 151.251 10.2668C151.098 10.3216 150.951 10.3742 150.819 10.4286L147.085 11.9753C147.953 12.3601 148.827 12.7133 149.699 13.0656C151.431 13.7654 153.155 14.4619 154.811 15.3973C155.593 15.8398 156.361 16.2941 157.128 16.7639C157.198 16.8065 157.273 16.8572 157.352 16.9105C157.638 17.1045 157.976 17.3332 158.287 17.3292C158.693 17.324 159.062 16.915 159.36 16.5838C159.437 16.4992 159.508 16.4197 159.575 16.3533C160.044 15.8842 160.529 15.432 161.013 14.9797C161.482 14.5415 161.952 14.1032 162.408 13.6493C162.804 13.2544 163.216 12.8759 163.628 12.4975C164.262 11.9143 164.897 11.3311 165.476 10.6876C166.976 9.0211 168.232 7.0824 169.36 5.15065C169.854 4.30502 170.238 3.40565 170.622 2.5079C170.987 1.65462 171.351 0.802801 171.808 0L171.857 0.157739C171.916 0.417332 171.882 0.679098 171.847 0.947094C171.833 1.05942 171.818 1.17285 171.81 1.28766C171.739 2.32526 171.573 3.35861 171.37 4.37805C170.517 8.64253 168.937 12.7435 166.484 16.3533C165.709 17.4924 164.826 18.5408 163.916 19.5725C163.841 19.6569 163.739 19.7522 163.628 19.8556C163.313 20.1487 162.931 20.5054 162.931 20.8551C162.931 21.241 163.519 21.7203 163.961 22.0811C164.115 22.2064 164.251 22.3174 164.339 22.4053C165.736 23.8001 167.009 25.2508 168.252 26.7834C171.054 30.2367 173.255 34.0334 175.007 38.1148C175.153 38.4543 175.311 38.8007 175.472 39.1524C176.04 40.3968 176.638 41.7071 176.83 43.0079C176.37 42.7565 176.096 42.3159 175.822 41.8755C175.736 41.7359 175.649 41.5963 175.556 41.4627C174.795 40.3632 173.992 39.2978 173.17 38.2436C170.177 34.4097 166.828 30.8759 163.18 27.6648C162.251 26.8466 161.315 26.0381 160.347 25.2639C160.252 25.1877 160.151 25.0981 160.046 25.0045C159.723 24.7176 159.357 24.3928 158.985 24.2979C158.604 24.2004 158.145 24.5504 157.785 24.8253C157.686 24.9006 157.595 24.9702 157.515 25.0235C156.385 25.7729 155.217 26.4499 154.038 27.1151C150.132 29.3166 145.624 30.8023 141.29 31.886C134.419 33.6036 127.358 34.3383 120.301 34.5113C119.68 34.5265 119.058 34.5524 118.435 34.5783C117.042 34.6363 115.647 34.6943 114.249 34.6331C113.522 34.6012 112.793 34.5755 112.063 34.5497C110.128 34.4813 108.187 34.4127 106.266 34.2299C105.697 34.1759 105.123 34.1024 104.547 34.0287C103.484 33.8927 102.413 33.7557 101.358 33.7382ZM141.033 9.01363H135.367C135.4 8.28276 135.61 6.72726 136.297 6.31315C136.558 6.15639 136.903 6.16692 137.216 6.17643C137.288 6.17864 137.359 6.1808 137.427 6.18078H148.501C148.317 7.51453 147.098 7.95594 145.95 8.37153C145.812 8.42173 145.674 8.47155 145.539 8.52252C144.21 9.02609 142.863 9.02055 141.476 9.01485C141.328 9.01424 141.181 9.01363 141.033 9.01363Z" fill="#FF3B6E"/>
<path d="M101.245 33.7367L101.328 33.3178C101.353 32.1327 101.631 30.9368 101.858 29.7415C101.94 29.3092 102.022 28.8801 102.093 28.4573C102.105 28.386 102.117 28.3134 102.13 28.2396C102.27 27.4324 102.434 26.4908 101.999 25.7608C101.633 25.1465 100.822 25.1879 100.132 25.2229C99.98 25.2307 99.8337 25.2382 99.6994 25.2382H95.5789C95.5175 25.2382 95.4565 25.2379 95.396 25.2377C94.3763 25.2341 93.4972 25.231 92.9285 26.2684C92.5928 26.8809 92.4876 27.612 92.3868 28.3136C92.361 28.493 92.3354 28.6705 92.3064 28.8436C92.0808 30.1891 91.8724 31.5381 91.664 32.8866C91.6203 33.17 91.5765 33.4534 91.5325 33.7367C91.1133 36.4394 90.6798 39.1399 90.2462 41.8403C89.8117 44.5466 89.3772 47.2528 88.9572 49.9613C88.8942 50.3674 88.8388 50.7856 88.7827 51.2095C88.5531 52.9443 88.3107 54.775 87.479 56.2708C87.164 56.8371 86.4183 57.9292 85.6644 57.8595C84.8572 57.7848 84.504 56.6727 84.3949 56.0133C84.1581 54.5821 84.4425 53.0739 84.7169 51.6192C84.7896 51.2337 84.8616 50.8519 84.923 50.4763L87.4349 34.6381C87.568 33.8236 87.6945 33.008 87.8209 32.1924C87.9608 31.2902 88.1006 30.3881 88.2495 29.4874C88.2855 29.2695 88.3309 29.0442 88.3771 28.8151C88.5128 28.1412 88.6553 27.434 88.5864 26.7833C88.5346 26.2949 88.4299 25.6382 87.9645 25.3705C87.5865 25.1531 87.0078 25.1883 86.5065 25.2188C86.3429 25.2287 86.1876 25.2382 86.0502 25.2382H81.5434C81.469 25.2382 81.3947 25.2373 81.3207 25.2365C80.6702 25.2293 80.0459 25.2224 79.5847 25.7776C79.0001 26.4812 78.8604 27.3969 78.7259 28.2788C78.7035 28.4255 78.6813 28.5712 78.6572 28.7148C78.4997 29.6539 78.3541 30.5949 78.2085 31.5359C78.075 32.3988 77.9415 33.2616 77.7988 34.123C77.2924 37.1807 76.8178 40.2437 76.3432 43.3067C75.8463 46.5141 75.3493 49.7215 74.8157 52.9229C74.7415 53.3682 74.6526 53.8316 74.5615 54.3067C74.0857 56.7872 73.5486 59.5871 74.7168 61.8077C75.7472 63.7659 77.6447 63.7536 79.5463 63.7412C79.697 63.7402 79.8478 63.7392 79.9982 63.7392H89.2693C89.3764 63.7392 89.4829 63.7394 89.5888 63.7396C91.9504 63.7437 94.0106 63.7473 95.6409 61.679C97.3084 59.5636 97.6713 56.8763 98.0252 54.2558C98.1092 53.6332 98.1928 53.0143 98.2933 52.4078C98.5252 51.0075 98.7625 49.6057 99 48.2027C99.8143 43.391 100.632 38.5651 101.245 33.7367Z" fill="#FF3B6E"/>
<path fill-rule="evenodd" clip-rule="evenodd" d="M61.7129 55.627C62.1744 53.1775 62.8203 50.523 62.8718 48.0298H67.2498C67.8822 48.0298 68.7286 48.1725 69.3096 47.878C70.7652 47.1402 70.9539 44.3149 70.9821 42.8792C70.9944 42.2508 70.9453 41.446 70.3263 41.0995C69.8029 40.8064 68.9872 40.9477 68.4087 40.9477H64.0307C64.367 39.8842 64.4295 38.7019 64.6004 37.5998C64.8172 36.2023 65.1604 34.7663 65.1896 33.3505H72.0142C72.8207 33.3505 74.1136 33.5938 74.8451 33.2181C75.3765 32.9452 75.695 32.3431 75.893 31.8053C76.372 30.505 76.5437 28.8077 76.6383 27.4272C76.6803 26.8137 76.734 25.8855 76.2095 25.4446C75.881 25.1685 75.3742 25.2383 74.9758 25.2382H60.8115C59.7425 25.2382 57.6584 24.8349 56.8472 25.6436C56.123 26.3654 56.0253 27.5027 55.8651 28.4574C55.5487 30.3434 55.2801 32.2369 54.9637 34.1231C53.8209 40.9384 52.8367 47.7803 51.7009 54.5969C51.401 56.3972 51.1451 58.2052 50.8432 60.0051C50.6933 60.8994 50.4032 62.0895 50.7689 62.9648C51.3126 64.2654 53.9963 63.7393 55.1458 63.7393H66.3485C67.4596 63.7393 69.5607 64.1454 70.4188 63.3023C70.9055 62.8238 71.109 62.0684 71.2411 61.4215C71.4987 60.1602 71.7115 58.841 71.8257 57.5585C71.8756 56.9983 71.8171 55.9686 71.214 55.7047C70.4801 55.3834 69.2026 55.627 68.4087 55.627H61.7129Z" fill="#FF3B6E"/>
<path fill-rule="evenodd" clip-rule="evenodd" d="M31.7128 25.3337C30.3737 25.8592 30.3505 28.0491 30.1553 29.2299C29.5244 33.0464 28.9671 36.8745 28.3311 40.6901C27.4452 46.0055 26.6765 51.3405 25.7979 56.6571C25.4404 58.8208 25.465 61.7194 27.4617 63.1212C28.4326 63.8027 29.6857 63.6105 30.8095 63.6105H38.0204C40.2822 63.6114 42.9344 64.2309 45.1025 63.3409C48.1422 62.0931 48.8911 58.4919 49.3621 55.627C50.5113 48.6374 51.534 41.6268 52.6894 34.6381C53.0717 32.3249 53.4518 30.0056 53.7841 27.6847C53.892 26.9303 53.9574 25.6607 53.0804 25.3158C52.5316 25.1001 51.7356 25.2382 51.1545 25.2382H46.9052C46.2126 25.2382 45.4407 25.1236 44.9131 25.6688C44.2174 26.3879 44.0737 27.5133 43.9436 28.4573C43.7718 29.704 43.5612 30.9504 43.3531 32.1915C42.397 37.8923 41.5778 43.6158 40.6275 49.3174C40.26 51.5222 40.1818 53.9986 39.1459 56.0133C38.8096 56.6673 38.211 57.7397 37.3767 57.81C36.3935 57.8928 36.0472 56.4776 35.9434 55.7558C35.6309 53.5822 36.3892 51.0839 36.743 48.9311C37.6597 43.3562 38.4765 37.7647 39.405 32.1915C39.6404 30.7787 39.8662 29.3609 40.0639 27.9423C40.1609 27.2456 40.2946 26.4123 39.9293 25.7608C39.5491 25.0826 38.6777 25.2382 38.0204 25.2382H33.7711C33.1407 25.2382 32.3092 25.0996 31.7128 25.3337V25.3337Z" fill="#FF3B6E"/>
<path fill-rule="evenodd" clip-rule="evenodd" d="M168.074 34.8956C167.927 36.7482 167.479 38.5939 167.207 40.4326C166.599 44.5578 165.932 48.6803 165.251 52.7941C165.022 54.1801 164.74 55.6067 163.925 56.7857C163.616 57.2329 163.136 57.859 162.537 57.8898C161.683 57.9338 161.272 56.8132 161.158 56.142C160.832 54.2529 161.375 52.2179 161.688 50.3475C162.443 45.8514 163.206 41.3414 163.841 36.8271C164.005 35.6668 164.199 34.506 164.392 33.3504C164.493 32.7559 164.726 32.0222 164.633 31.4189C164.537 30.7929 163.881 30.3883 163.439 30.003C162.367 29.0667 161.314 28.1132 160.219 27.2014C159.819 26.8678 159.252 26.1927 158.674 26.2658C158.344 26.3074 158.04 26.5637 157.772 26.7405C157.12 27.1712 155.881 27.6323 155.52 28.3524C155.018 29.3593 155.057 30.9525 154.886 32.0628C154.445 34.8966 153.998 37.7317 153.533 40.5613C152.653 45.9219 151.856 51.2959 150.98 56.6571C150.625 58.829 150.595 61.7871 152.623 63.1952C153.644 63.9035 154.922 63.7392 156.099 63.7392H167.43C168.402 63.7392 169.347 63.8077 170.263 63.422C173.685 61.9799 174.146 57.8871 174.673 54.7256C175.037 52.539 175.372 50.3473 175.724 48.1585C175.867 47.2681 176.323 45.9533 176.14 45.0681C175.972 44.2568 174.898 43.3228 174.426 42.6216C173.16 40.743 171.741 38.9704 170.313 37.2134C169.678 36.432 168.982 35.3554 168.074 34.8956V34.8956Z" fill="white"/>
<path fill-rule="evenodd" clip-rule="evenodd" d="M177.088 38.7587C177.553 37.8839 177.538 36.6408 177.7 35.6683C178.079 33.3987 178.459 31.1222 178.779 28.8437C178.916 27.8718 179.364 26.3731 178.568 25.5517C178.121 25.092 177.282 25.2382 176.702 25.2382C175.028 25.2382 173.354 25.2301 171.68 25.2384C171.1 25.2412 170.13 25.2722 169.984 26.0133C169.908 26.4044 170.252 26.7574 170.467 27.041C171.047 27.8022 171.621 28.5633 172.153 29.3588C173.415 31.2493 174.52 33.2358 175.51 35.282C176.063 36.4262 176.491 37.637 177.088 38.7587V38.7587Z" fill="white"/>
<path fill-rule="evenodd" clip-rule="evenodd" d="M103.82 31.5478C110.829 31.5478 117.915 30.7865 124.809 29.4875C124.856 28.3926 125.627 26.3162 124.608 25.4626C124.251 25.1629 123.697 25.2384 123.264 25.2383H106.911C106.439 25.2384 105.917 25.1858 105.506 25.4626C104.986 25.8128 104.724 26.461 104.56 27.041C104.163 28.448 103.935 30.0908 103.82 31.5478Z" fill="#FF3B6E"/>
<path fill-rule="evenodd" clip-rule="evenodd" d="M127.127 28.9723C128.324 28.9202 129.571 28.5367 130.732 28.2478C132.807 27.7317 134.862 27.1806 136.913 26.5804C137.692 26.3525 138.461 26.096 139.231 25.8391C139.665 25.6943 140.11 25.6101 140.39 25.2381H131.891C130.919 25.2381 129.263 24.9232 128.417 25.4624C127.329 26.1549 127.137 27.7997 127.127 28.9723V28.9723Z" fill="#FF3B6E"/>
<path fill-rule="evenodd" clip-rule="evenodd" d="M128.027 16.2246H131.504C131.929 16.2246 132.617 16.3501 132.984 16.0922C133.285 15.881 133.372 15.3951 133.472 15.0657C133.714 14.2631 134.011 13.4583 134.079 12.6191C133 12.3719 131.947 12.0417 130.86 11.8209C130.478 11.7433 129.876 11.5083 129.498 11.6718C129.126 11.8324 129.066 12.4085 128.965 12.7479C128.626 13.8747 128.13 15.0483 128.027 16.2246Z" fill="#FF3B6E"/>
<path d="M149.918 30.7751C147.55 31.8823 144.962 32.5975 142.45 33.2958C141.852 33.4617 141.248 33.604 140.647 33.7518C140.355 33.8235 139.971 33.8593 139.823 34.1634C139.617 34.59 139.683 35.3225 139.617 35.797C139.464 36.9144 139.276 38.032 139.092 39.1449C138.404 43.3034 137.761 47.4701 137.116 51.6352C136.785 53.768 136.445 56.9171 134.08 57.8166C133.488 58.0417 132.77 57.9447 132.149 57.9447C133.166 52.4831 133.946 46.9531 134.799 41.4627C135.141 39.2476 135.357 36.9453 135.883 34.7668C133.6 34.9472 131.349 35.515 129.058 35.6714C128.327 35.7213 127.598 35.8292 126.869 35.904C126.615 35.93 126.276 35.887 126.063 36.0581C125.735 36.324 125.764 37.085 125.7 37.4709L125.056 41.4627C124.182 46.7772 123.311 52.1012 122.526 57.4297C122.314 58.8683 121.924 60.3554 121.861 61.8077C121.837 62.3496 121.939 63.1577 122.398 63.5149C122.989 63.9744 124.231 63.7392 124.938 63.7392H138.458C140.105 63.7392 141.595 63.8485 142.965 62.7712C145.534 60.7515 145.902 57.6009 146.367 54.5968C147.194 49.2711 148.05 43.9488 148.92 38.6298C149.214 36.8284 149.482 35.0227 149.779 33.2216C149.903 32.4774 150.218 31.4906 149.918 30.7751V30.7751Z" fill="#FF3B6E"/>
<path fill-rule="evenodd" clip-rule="evenodd" d="M9.56301 63.6106C9.57486 65.0338 9.91918 66.4711 10.2072 67.8598C10.3409 68.5039 10.4818 69.2834 11.007 69.7355C11.4891 70.1506 12.1918 70.0489 12.7822 70.0489H15.615C16.0569 70.0489 16.6087 70.1323 17.029 69.9712C17.4006 69.8287 17.6145 69.5052 17.7522 69.1474C18.4389 67.3623 16.802 65.2772 16.2589 63.6106C17.1333 63.6106 18.1106 63.732 18.9629 63.5126C21.0231 62.9822 22.4203 60.8793 23.0733 58.975C23.9722 56.3537 24.131 53.3366 24.5545 50.6052C25.3604 45.4088 26.1793 40.2114 27.0434 35.0245C27.4352 32.6727 28.0744 30.1445 27.2869 27.8136C26.8504 26.5214 25.8137 25.3142 24.3711 25.2434C20.571 25.0569 16.7161 25.2382 12.9109 25.2382C11.5876 25.2382 9.94017 24.9765 8.66165 25.3398C7.63513 25.6315 6.79892 26.3862 6.11002 27.1697C4.08736 29.4709 4.01255 32.7937 3.54268 35.6683C2.56109 41.6737 1.65509 47.6911 0.667845 53.6956C0.217034 56.4369 -0.795969 60.0419 1.15213 62.4465C2.12947 63.6529 3.38764 63.6106 4.79866 63.6106H9.56301ZM15.7438 30.9905C13.889 31.4922 13.4166 34.4828 13.1582 36.0546C12.2777 41.4097 11.3656 46.7762 10.6099 52.1504C10.4095 53.5759 10.0347 55.249 10.5111 56.6572C10.705 57.2303 11.1634 57.9916 11.8808 57.8467C12.4281 57.7362 12.8862 57.2159 13.1956 56.7858C14.0496 55.5992 14.2923 54.0736 14.5107 52.6654C15.3565 47.2128 16.1945 41.7538 17.1069 36.3121C17.3411 34.9157 17.6336 33.4443 17.1463 32.0629C16.9349 31.4633 16.4662 30.7951 15.7438 30.9905V30.9905Z" fill="#FF3B6E"/>
<path d="M110.129 55.6271C110.563 53.8645 110.726 52.0101 111.02 50.2189C111.109 49.6819 111.087 48.636 111.494 48.2363C111.87 47.8675 112.74 48.0298 113.22 48.0298H116.31C116.795 48.0298 117.401 48.1187 117.843 47.878C118.263 47.6495 118.524 47.1638 118.712 46.7422C119.203 45.6376 119.375 44.0816 119.399 42.8792C119.409 42.3267 119.396 41.5339 118.856 41.2088C118.37 40.9156 117.501 41.0765 116.954 41.0765H112.447C112.828 39.5301 113.02 37.8914 113.22 36.3121C110.824 36.2092 108.397 36.1312 106.009 35.9039C105.409 35.8469 104.804 35.8003 104.206 35.7229C103.92 35.6859 103.52 35.602 103.271 35.8007C102.909 36.0905 102.945 36.9225 102.883 37.3423C102.687 38.6741 102.464 40.0062 102.243 41.334C101.351 46.6876 100.438 52.0553 99.6825 57.4298C99.473 58.9196 99.0555 60.4269 99.0557 61.9366C99.0557 62.554 99.0891 63.2733 99.7063 63.6069C100.079 63.8083 100.579 63.7393 100.987 63.7393H117.083C117.589 63.7393 118.174 63.8126 118.616 63.515C119.168 63.1434 119.445 62.4293 119.593 61.8078C119.911 60.4719 120.097 59.0516 120.245 57.6873C120.312 57.0737 120.25 56.1004 119.644 55.7594C118.952 55.3698 117.602 55.6271 116.825 55.6271H110.129Z" fill="#FF3B6E"/>
<path fill-rule="evenodd" clip-rule="evenodd" d="M187.389 49.4462H193.441C196.168 49.4462 198.451 49.5748 200.334 47.2572C201.881 45.3534 202.117 43.016 202.507 40.6901C202.824 38.8039 203.093 36.9103 203.409 35.0244C203.657 33.5436 204 32.0209 204 30.5176C204 28.5963 203.464 26.0034 201.296 25.4336C199.672 25.0072 197.81 25.2382 196.145 25.2382H183.912C183.201 25.2384 182.541 25.224 182.008 25.7704C181.399 26.395 181.248 27.248 181.112 28.071C180.918 29.229 180.746 30.3896 180.554 31.5477C179.73 36.52 178.964 41.504 178.192 46.4846C177.533 50.735 176.768 54.9731 176.169 59.2324C176.009 60.3722 175.208 62.6678 176.343 63.5328C176.695 63.7999 177.188 63.7391 177.603 63.7393H183.011C183.48 63.7393 184.013 63.807 184.422 63.5328C185.551 62.776 185.611 60.9519 185.811 59.7475C186.377 56.355 187.118 52.874 187.389 49.4462V49.4462ZM184.586 41.4295C184.253 41.5859 184.143 42.0011 184.47 42.2323C184.75 42.4301 185.255 42.4393 185.586 42.4709C188.222 42.7231 190.923 42.5107 193.57 42.6266C194.363 42.6614 195.949 43.1203 196.619 42.544C196.927 42.2783 196.893 41.8372 196.512 41.6691C195.989 41.4389 195.161 41.594 194.6 41.5913C192.201 41.5798 189.79 41.3339 187.389 41.3339C186.6 41.3339 185.309 41.0886 184.586 41.4295V41.4295ZM185.079 39.1117C184.64 39.2958 184.44 39.8681 184.962 40.0974C185.572 40.3656 186.473 40.1342 187.131 40.2117C189.435 40.4837 191.892 40.4326 194.213 40.4326C194.91 40.4326 196.446 40.7663 197.005 40.3216C197.322 40.0692 197.268 39.6431 196.898 39.4801C196.431 39.2736 195.625 39.2881 195.115 39.2756C192.708 39.2166 190.311 39.1564 187.904 39.1448C187.039 39.1407 185.908 38.7638 185.079 39.1117V39.1117ZM185.231 36.9595C184.583 37.3707 185.21 37.9148 185.715 37.972C186.686 38.0821 187.7 37.964 188.677 37.988C190.56 38.0341 192.458 38.156 194.342 38.2385C195.026 38.2684 195.717 38.2482 196.402 38.2434C196.728 38.2412 197.126 38.2702 197.389 38.0371C197.676 37.7823 197.594 37.424 197.285 37.2365C196.838 36.9661 196.13 37.0847 195.63 37.0847C193.097 37.0847 190.562 36.8394 188.033 36.8273C187.299 36.8237 185.867 36.5566 185.231 36.9595V36.9595ZM192.282 29.5887C191.625 29.766 191.003 30.4405 190.479 30.8493C189.19 31.8533 187.896 32.8501 186.616 33.8651C186.227 34.1735 184.984 34.853 185.34 35.4985C185.488 35.7678 185.832 35.7823 186.101 35.7945C186.789 35.8256 187.474 35.9223 188.161 35.9256C190.401 35.9365 192.619 36.0536 194.857 36.0545C195.631 36.0548 196.695 36.3936 197.425 36.0878C198.36 35.6967 197.617 34.8506 197.211 34.3806C196.122 33.1184 194.974 31.9061 193.881 30.6464C193.5 30.2062 192.964 29.4043 192.282 29.5887V29.5887Z" fill="white"/>
</svg>
