<svg width="204" height="71" viewBox="0 0 204 71" fill="none" xmlns="http://www.w3.org/2000/svg">
<path d="M62.3993 16.5746H67.39L68.6095 12.521L79.1667 6.48024L80.2958 2.90094H75.2938L74.7631 4.69624L66.9497 9.11109L62.038 4.8656L62.6364 2.88965H57.6457L56.6295 6.277L63.6526 12.4194L62.3993 16.5746ZM104.391 11.0193L102.731 16.5633H125.314L126.443 12.9614H109.246L116.8 9.78856L110.895 6.50283H128.362L129.491 2.88965H106.909L105.204 8.28683L107.632 9.67565L104.391 11.0193ZM38.0442 2.90094H33.0987L29 16.5746H33.9455L38.0442 2.90094ZM55.1842 2.90094H50.6678L49.1548 7.90293H37.8636L36.7345 11.5161H48.0256L46.5126 16.552H51.5824L55.6472 2.90094H55.1842ZM85.8624 6.50283H98.4859L98.1359 7.63194L93.8904 9.41595H86.2802L85.151 13.0178H94.6469L102.427 9.74339L104.538 2.90094H81.9556L77.8569 16.5746H82.8363L85.8624 6.50283ZM129.029 12.0016L127.651 16.5746H132.63C132.63 16.5746 133.477 13.7292 133.681 13.1082C132.179 12.6904 130.621 12.3291 129.029 12.0016ZM145.051 12.8485L152.232 9.92405L154.332 2.90094H131.75L129.604 10.0821C134.862 10.2324 140.068 11.1647 145.051 12.8485V12.8485ZM135.656 6.50283H148.269C148.111 7.03351 147.953 7.5642 147.885 7.77873L144.012 9.41595H134.776C134.968 8.80623 135.544 6.88673 135.656 6.50283V6.50283Z" fill="#FF3B6E"/>
<path d="M176.44 43.471C173.053 33.4219 167.927 26.2859 162.112 21.2387C167.317 16.169 170.874 9.29264 171.517 0C171.517 0 169.394 9.24748 157.968 18.0659C141.031 6.51501 120.707 9.80074 120.707 9.80074C132.51 10.6414 143.9 14.4939 153.79 20.9903C143.109 27.765 126.172 33.6364 99.4907 33.8284C99.4907 33.8284 137.689 39.5869 158.487 24.2986C165.545 29.5925 171.621 36.0813 176.44 43.471V43.471Z" fill="white"/>
<path d="M101.245 33.737L101.328 33.3181C101.353 32.133 101.631 30.9371 101.858 29.7418C101.94 29.3095 102.022 28.8804 102.093 28.4576C102.105 28.3863 102.117 28.3137 102.13 28.2399C102.27 27.4327 102.434 26.4911 101.999 25.7611C101.633 25.1468 100.822 25.1882 100.132 25.2232C99.98 25.231 99.8337 25.2385 99.6994 25.2385H95.5789C95.5175 25.2385 95.4565 25.2382 95.396 25.238C94.3763 25.2344 93.4972 25.2313 92.9285 26.2687C92.5928 26.8812 92.4876 27.6123 92.3868 28.3139C92.361 28.4933 92.3354 28.6708 92.3064 28.8439C92.0808 30.1894 91.8724 31.5384 91.664 32.8869C91.6203 33.1703 91.5765 33.4537 91.5325 33.737C91.1133 36.4397 90.6798 39.1402 90.2462 41.8406C89.8117 44.5469 89.3772 47.2531 88.9572 49.9616C88.8942 50.3677 88.8388 50.7859 88.7827 51.2098C88.5531 52.9446 88.3107 54.7753 87.479 56.2711C87.164 56.8374 86.4183 57.9295 85.6644 57.8598C84.8572 57.7851 84.504 56.673 84.3949 56.0136C84.1581 54.5824 84.4425 53.0742 84.7169 51.6195C84.7896 51.234 84.8616 50.8522 84.923 50.4766L87.4349 34.6384C87.568 33.8239 87.6945 33.0083 87.8209 32.1927C87.9608 31.2905 88.1006 30.3884 88.2495 29.4877C88.2855 29.2698 88.3309 29.0445 88.3771 28.8154C88.5128 28.1415 88.6553 27.4343 88.5864 26.7836C88.5346 26.2952 88.4299 25.6385 87.9645 25.3708C87.5865 25.1534 87.0078 25.1886 86.5065 25.2191C86.3429 25.229 86.1876 25.2385 86.0502 25.2385H81.5434C81.469 25.2385 81.3947 25.2376 81.3207 25.2368C80.6702 25.2296 80.0459 25.2227 79.5847 25.7779C79.0001 26.4815 78.8604 27.3972 78.7259 28.2791C78.7035 28.4258 78.6813 28.5715 78.6572 28.7151C78.4997 29.6542 78.3541 30.5952 78.2085 31.5362C78.075 32.3991 77.9415 33.2619 77.7988 34.1233C77.2924 37.181 76.8178 40.244 76.3432 43.307C75.8463 46.5144 75.3493 49.7218 74.8157 52.9232C74.7415 53.3685 74.6526 53.8319 74.5615 54.307C74.0857 56.7875 73.5486 59.5874 74.7168 61.808C75.7472 63.7662 77.6447 63.7539 79.5463 63.7415C79.697 63.7405 79.8478 63.7395 79.9982 63.7395H89.2693C89.3764 63.7395 89.4829 63.7397 89.5888 63.7399C91.9504 63.744 94.0106 63.7476 95.6409 61.6793C97.3084 59.5639 97.6713 56.8766 98.0252 54.2561C98.1092 53.6335 98.1928 53.0146 98.2933 52.4081C98.5252 51.0078 98.7625 49.606 99 48.203C99.8143 43.3913 100.632 38.5654 101.245 33.737Z" fill="#FF3B6E"/>
<path fill-rule="evenodd" clip-rule="evenodd" d="M61.7129 55.6271C62.1744 53.1776 62.8203 50.5231 62.8718 48.0299H67.2498C67.8822 48.0299 68.7286 48.1726 69.3096 47.8781C70.7652 47.1403 70.9539 44.315 70.9821 42.8793C70.9944 42.2509 70.9453 41.4461 70.3263 41.0996C69.8029 40.8065 68.9872 40.9478 68.4087 40.9478H64.0307C64.367 39.8843 64.4295 38.702 64.6004 37.5999C64.8172 36.2024 65.1604 34.7664 65.1896 33.3506H72.0142C72.8207 33.3506 74.1136 33.5939 74.8451 33.2182C75.3765 32.9453 75.695 32.3432 75.893 31.8054C76.372 30.5051 76.5437 28.8078 76.6383 27.4273C76.6803 26.8138 76.734 25.8856 76.2095 25.4447C75.881 25.1686 75.3742 25.2384 74.9758 25.2383H60.8115C59.7425 25.2383 57.6584 24.835 56.8472 25.6437C56.123 26.3655 56.0253 27.5028 55.8651 28.4575C55.5487 30.3435 55.2801 32.237 54.9637 34.1232C53.8209 40.9385 52.8367 47.7804 51.7009 54.597C51.401 56.3973 51.1451 58.2053 50.8432 60.0052C50.6933 60.8995 50.4032 62.0896 50.7689 62.9649C51.3126 64.2655 53.9963 63.7394 55.1458 63.7394H66.3485C67.4596 63.7394 69.5607 64.1455 70.4188 63.3024C70.9055 62.8239 71.109 62.0685 71.2411 61.4216C71.4987 60.1603 71.7115 58.8411 71.8257 57.5586C71.8756 56.9984 71.8171 55.9687 71.214 55.7048C70.4801 55.3835 69.2026 55.6271 68.4087 55.6271H61.7129Z" fill="#FF3B6E"/>
<path fill-rule="evenodd" clip-rule="evenodd" d="M31.7128 25.3334C30.3737 25.8589 30.3505 28.0488 30.1553 29.2296C29.5244 33.0461 28.9671 36.8742 28.3311 40.6898C27.4452 46.0052 26.6765 51.3402 25.7979 56.6568C25.4404 58.8205 25.465 61.7191 27.4617 63.1209C28.4326 63.8024 29.6857 63.6102 30.8095 63.6102H38.0204C40.2822 63.6111 42.9344 64.2306 45.1025 63.3406C48.1422 62.0928 48.8911 58.4916 49.3621 55.6267C50.5113 48.6371 51.534 41.6265 52.6894 34.6378C53.0717 32.3246 53.4518 30.0053 53.7841 27.6844C53.892 26.93 53.9574 25.6604 53.0804 25.3155C52.5316 25.0998 51.7356 25.2379 51.1545 25.2379H46.9052C46.2126 25.2379 45.4407 25.1233 44.9131 25.6685C44.2174 26.3876 44.0737 27.513 43.9436 28.457C43.7718 29.7037 43.5612 30.9501 43.3531 32.1912C42.397 37.892 41.5778 43.6155 40.6275 49.3171C40.26 51.5219 40.1818 53.9983 39.1459 56.013C38.8096 56.667 38.211 57.7394 37.3767 57.8097C36.3935 57.8925 36.0472 56.4773 35.9434 55.7555C35.6309 53.5819 36.3892 51.0836 36.743 48.9308C37.6597 43.3559 38.4765 37.7644 39.405 32.1912C39.6404 30.7784 39.8662 29.3606 40.0639 27.942C40.1609 27.2453 40.2946 26.412 39.9293 25.7605C39.5491 25.0823 38.6777 25.2379 38.0204 25.2379H33.7711C33.1407 25.2379 32.3092 25.0993 31.7128 25.3334Z" fill="#FF3B6E"/>
<path fill-rule="evenodd" clip-rule="evenodd" d="M168.074 34.896C167.927 36.7486 167.479 38.5943 167.207 40.433C166.599 44.5582 165.932 48.6807 165.251 52.7945C165.022 54.1805 164.74 55.6071 163.925 56.7861C163.616 57.2333 163.136 57.8594 162.537 57.8902C161.683 57.9342 161.272 56.8136 161.158 56.1424C160.832 54.2533 161.375 52.2183 161.688 50.3479C162.443 45.8518 163.206 41.3418 163.841 36.8275C164.005 35.6672 164.199 34.5064 164.392 33.3508C164.493 32.7563 164.726 32.0226 164.633 31.4193C164.537 30.7933 163.881 30.3887 163.439 30.0034C162.367 29.0671 161.314 28.1136 160.219 27.2018C159.819 26.8682 159.252 26.1931 158.674 26.2662C158.344 26.3078 158.04 26.5641 157.772 26.7409C157.12 27.1716 155.881 27.6327 155.52 28.3528C155.018 29.3597 155.057 30.9529 154.886 32.0632C154.445 34.897 153.998 37.7321 153.533 40.5617C152.653 45.9223 151.856 51.2963 150.98 56.6575C150.625 58.8294 150.595 61.7875 152.623 63.1956C153.644 63.9039 154.922 63.7396 156.099 63.7396H167.43C168.402 63.7396 169.347 63.8081 170.263 63.4224C173.685 61.9803 174.146 57.8875 174.673 54.726C175.037 52.5394 175.372 50.3477 175.724 48.1589C175.867 47.2685 176.323 45.9537 176.14 45.0685C175.972 44.2572 174.898 43.3232 174.426 42.622C173.16 40.7434 171.741 38.9708 170.313 37.2138C169.678 36.4324 168.982 35.3558 168.074 34.896Z" fill="white"/>
<path fill-rule="evenodd" clip-rule="evenodd" d="M177.088 38.7584C177.553 37.8836 177.538 36.6405 177.7 35.668C178.079 33.3984 178.459 31.1219 178.779 28.8434C178.916 27.8715 179.364 26.3728 178.568 25.5514C178.121 25.0917 177.282 25.2379 176.702 25.2379C175.028 25.2379 173.354 25.2298 171.68 25.2381C171.1 25.2409 170.13 25.2719 169.984 26.013C169.908 26.4041 170.252 26.7571 170.467 27.0407C171.047 27.8019 171.621 28.563 172.153 29.3585C173.415 31.249 174.52 33.2355 175.51 35.2817C176.063 36.4259 176.491 37.6367 177.088 38.7584Z" fill="white"/>
<path fill-rule="evenodd" clip-rule="evenodd" d="M103.82 31.5474C110.829 31.5474 117.915 30.7861 124.809 29.4871C124.856 28.3922 125.627 26.3158 124.608 25.4622C124.251 25.1625 123.697 25.238 123.264 25.2379H106.911C106.439 25.238 105.917 25.1854 105.506 25.4622C104.986 25.8124 104.724 26.4606 104.56 27.0406C104.163 28.4476 103.935 30.0904 103.82 31.5474Z" fill="#FF3B6E"/>
<path fill-rule="evenodd" clip-rule="evenodd" d="M127.127 28.9721C128.324 28.92 129.571 28.5365 130.732 28.2476C132.807 27.7315 134.862 27.1804 136.913 26.5802C137.692 26.3523 138.461 26.0958 139.231 25.8389C139.665 25.6941 140.11 25.6099 140.39 25.2379H131.891C130.919 25.2379 129.263 24.923 128.417 25.4622C127.329 26.1547 127.137 27.7995 127.127 28.9721Z" fill="#FF3B6E"/>
<path fill-rule="evenodd" clip-rule="evenodd" d="M128.027 16.2246H131.504C131.929 16.2246 132.617 16.3501 132.984 16.0922C133.285 15.881 133.372 15.3951 133.472 15.0657C133.714 14.2631 134.011 13.4583 134.079 12.6191C133 12.3719 131.947 12.0417 130.86 11.8209C130.478 11.7433 129.876 11.5083 129.498 11.6718C129.126 11.8324 129.066 12.4085 128.965 12.7479C128.626 13.8747 128.13 15.0483 128.027 16.2246Z" fill="#FF3B6E"/>
<path d="M149.918 30.7754C147.55 31.8826 144.962 32.5978 142.45 33.2961C141.852 33.462 141.248 33.6043 140.647 33.7521C140.355 33.8238 139.971 33.8596 139.823 34.1637C139.617 34.5903 139.683 35.3228 139.617 35.7973C139.464 36.9147 139.276 38.0323 139.092 39.1452C138.404 43.3037 137.761 47.4704 137.116 51.6355C136.785 53.7683 136.445 56.9174 134.08 57.8169C133.488 58.042 132.77 57.945 132.149 57.945C133.166 52.4834 133.946 46.9534 134.799 41.463C135.141 39.2479 135.357 36.9456 135.883 34.7671C133.6 34.9475 131.349 35.5153 129.058 35.6717C128.327 35.7216 127.598 35.8295 126.869 35.9043C126.615 35.9303 126.276 35.8873 126.063 36.0584C125.735 36.3243 125.764 37.0853 125.7 37.4712L125.056 41.463C124.182 46.7775 123.311 52.1015 122.526 57.43C122.314 58.8686 121.924 60.3557 121.861 61.808C121.837 62.3499 121.939 63.158 122.398 63.5152C122.989 63.9747 124.231 63.7395 124.938 63.7395H138.458C140.105 63.7395 141.595 63.8488 142.965 62.7715C145.534 60.7518 145.902 57.6012 146.367 54.5971C147.194 49.2714 148.05 43.9491 148.92 38.6301C149.214 36.8287 149.482 35.023 149.779 33.2219C149.903 32.4777 150.218 31.4909 149.918 30.7754Z" fill="#FF3B6E"/>
<path fill-rule="evenodd" clip-rule="evenodd" d="M9.56301 63.611C9.57486 65.0342 9.91918 66.4715 10.2072 67.8602C10.3409 68.5043 10.4818 69.2838 11.007 69.7359C11.4891 70.151 12.1918 70.0493 12.7822 70.0493H15.615C16.0569 70.0493 16.6087 70.1327 17.029 69.9716C17.4006 69.8291 17.6145 69.5056 17.7522 69.1478C18.4389 67.3627 16.802 65.2776 16.2589 63.611C17.1333 63.611 18.1106 63.7324 18.9629 63.513C21.0231 62.9826 22.4203 60.8797 23.0733 58.9754C23.9722 56.3541 24.131 53.337 24.5545 50.6056C25.3604 45.4092 26.1793 40.2118 27.0434 35.0249C27.4352 32.6731 28.0744 30.1449 27.2869 27.814C26.8504 26.5218 25.8137 25.3146 24.3711 25.2438C20.571 25.0573 16.7161 25.2386 12.9109 25.2386C11.5876 25.2386 9.94017 24.9769 8.66165 25.3402C7.63513 25.6319 6.79892 26.3866 6.11002 27.1701C4.08736 29.4713 4.01255 32.7941 3.54268 35.6687C2.56109 41.6741 1.65509 47.6915 0.667846 53.696C0.217035 56.4373 -0.795968 60.0423 1.15213 62.4469C2.12947 63.6533 3.38764 63.611 4.79866 63.611H9.56301ZM15.7438 30.9909C13.889 31.4926 13.4166 34.4832 13.1582 36.055C12.2777 41.4101 11.3656 46.7766 10.6099 52.1508C10.4095 53.5763 10.0347 55.2494 10.5111 56.6576C10.705 57.2307 11.1634 57.992 11.8808 57.8471C12.4281 57.7366 12.8862 57.2163 13.1956 56.7862C14.0496 55.5996 14.2923 54.074 14.5107 52.6658C15.3565 47.2132 16.1945 41.7542 17.1069 36.3125C17.3411 34.9161 17.6336 33.4447 17.1463 32.0633C16.9349 31.4637 16.4662 30.7955 15.7438 30.9909Z" fill="#FF3B6E"/>
<path d="M110.129 55.6275C110.563 53.8649 110.726 52.0105 111.02 50.2193C111.109 49.6823 111.087 48.6364 111.494 48.2367C111.87 47.8679 112.74 48.0302 113.22 48.0302H116.31C116.795 48.0302 117.401 48.1191 117.843 47.8784C118.263 47.6499 118.524 47.1642 118.712 46.7426C119.203 45.638 119.375 44.082 119.399 42.8796C119.409 42.3271 119.396 41.5343 118.856 41.2092C118.37 40.916 117.501 41.0769 116.954 41.0769H112.447C112.828 39.5305 113.02 37.8918 113.22 36.3125C110.824 36.2096 108.397 36.1316 106.009 35.9043C105.409 35.8473 104.804 35.8007 104.206 35.7233C103.92 35.6863 103.52 35.6024 103.271 35.8011C102.909 36.0909 102.945 36.9229 102.883 37.3427C102.687 38.6745 102.464 40.0066 102.243 41.3344C101.351 46.688 100.438 52.0557 99.6825 57.4302C99.473 58.92 99.0555 60.4273 99.0557 61.937C99.0557 62.5544 99.0891 63.2737 99.7063 63.6073C100.079 63.8087 100.579 63.7397 100.987 63.7397H117.083C117.589 63.7397 118.174 63.813 118.616 63.5154C119.168 63.1438 119.445 62.4297 119.593 61.8082C119.911 60.4723 120.097 59.052 120.245 57.6877C120.312 57.0741 120.25 56.1008 119.644 55.7598C118.952 55.3702 117.602 55.6275 116.825 55.6275H110.129Z" fill="#FF3B6E"/>
<path fill-rule="evenodd" clip-rule="evenodd" d="M187.389 49.4463H193.441C196.168 49.4463 198.451 49.5749 200.334 47.2573C201.881 45.3535 202.117 43.0161 202.507 40.6902C202.824 38.804 203.093 36.9104 203.409 35.0245C203.657 33.5437 204 32.021 204 30.5177C204 28.5964 203.464 26.0035 201.296 25.4337C199.672 25.0073 197.81 25.2383 196.145 25.2383H183.912C183.201 25.2385 182.541 25.2241 182.008 25.7705C181.399 26.3951 181.248 27.2481 181.112 28.0711C180.918 29.2291 180.746 30.3897 180.554 31.5478C179.73 36.5201 178.964 41.5041 178.192 46.4847C177.533 50.7351 176.768 54.9732 176.169 59.2325C176.009 60.3723 175.208 62.6679 176.343 63.5329C176.695 63.8 177.188 63.7392 177.603 63.7394H183.011C183.48 63.7394 184.013 63.8071 184.422 63.5329C185.551 62.7761 185.611 60.952 185.811 59.7476C186.377 56.3551 187.118 52.8741 187.389 49.4463ZM184.586 41.4296C184.253 41.586 184.143 42.0012 184.47 42.2324C184.75 42.4302 185.255 42.4394 185.586 42.471C188.222 42.7232 190.923 42.5108 193.57 42.6267C194.363 42.6615 195.949 43.1204 196.619 42.5441C196.927 42.2784 196.893 41.8373 196.512 41.6692C195.989 41.439 195.161 41.5941 194.6 41.5914C192.201 41.5799 189.79 41.334 187.389 41.334C186.6 41.334 185.309 41.0887 184.586 41.4296ZM185.079 39.1118C184.64 39.2959 184.44 39.8682 184.962 40.0975C185.572 40.3657 186.473 40.1343 187.131 40.2118C189.435 40.4838 191.892 40.4327 194.213 40.4327C194.91 40.4327 196.446 40.7664 197.005 40.3217C197.322 40.0693 197.268 39.6432 196.898 39.4802C196.431 39.2737 195.625 39.2882 195.115 39.2757C192.708 39.2167 190.311 39.1565 187.904 39.1449C187.039 39.1408 185.908 38.7639 185.079 39.1118ZM185.231 36.9596C184.583 37.3708 185.21 37.9149 185.715 37.9721C186.686 38.0822 187.7 37.9641 188.677 37.9881C190.56 38.0342 192.458 38.1561 194.342 38.2386C195.026 38.2685 195.717 38.2483 196.402 38.2435C196.728 38.2413 197.126 38.2703 197.389 38.0372C197.676 37.7824 197.594 37.4241 197.285 37.2366C196.838 36.9662 196.13 37.0848 195.63 37.0848C193.097 37.0848 190.562 36.8395 188.033 36.8274C187.299 36.8238 185.867 36.5567 185.231 36.9596ZM192.282 29.5888C191.625 29.7661 191.003 30.4406 190.479 30.8494C189.19 31.8534 187.896 32.8502 186.616 33.8652C186.227 34.1736 184.984 34.8531 185.34 35.4986C185.488 35.7679 185.832 35.7824 186.101 35.7946C186.789 35.8257 187.474 35.9224 188.161 35.9257C190.401 35.9366 192.619 36.0537 194.857 36.0546C195.631 36.0549 196.695 36.3937 197.425 36.0879C198.36 35.6968 197.617 34.8507 197.211 34.3807C196.122 33.1185 194.974 31.9062 193.881 30.6465C193.5 30.2063 192.964 29.4044 192.282 29.5888Z" fill="white"/>
</svg>
