<svg width="311" height="183" viewBox="0 0 311 183" fill="none" xmlns="http://www.w3.org/2000/svg">
<path d="M228.344 8.31226H276.091V134.893V135.393H276.591H303.75V181.737H178.915V135.393H218.284H218.784V134.893V62.6313V62.0164L218.182 62.1418L182.744 69.5247L170.56 30.5366L228.344 8.31226ZM111.281 181.737H53.9706C18.4415 181.737 0.897461 151.893 0.897461 127.916V62.1329C0.897461 38.1558 18.4415 8.31226 53.9706 8.31226H111.281C146.811 8.31226 164.355 38.1558 164.355 62.1329V127.916C164.355 151.893 146.811 181.737 111.281 181.737ZM70.1672 135.393H95.0849C99.6209 135.393 102.638 133.371 104.502 130.593C106.348 127.839 107.047 124.369 107.047 121.437V68.3624C107.047 65.4304 106.348 61.9604 104.502 59.207C102.638 56.4284 99.6209 54.4068 95.0849 54.4068H70.1672C65.6311 54.4068 62.6136 56.4284 60.7503 59.207C58.9039 61.9604 58.205 65.4304 58.205 68.3624V121.437C58.205 124.369 58.9039 127.839 60.7503 130.593C62.6136 133.371 65.6311 135.393 70.1672 135.393Z" fill="white"/>
<path d="M228.344 8.31226H276.091V134.893V135.393H276.591H303.75V181.737H178.915V135.393H218.284H218.784V134.893V62.6313V62.0164L218.182 62.1418L182.744 69.5247L170.56 30.5366L228.344 8.31226ZM111.281 181.737H53.9706C18.4415 181.737 0.897461 151.893 0.897461 127.916V62.1329C0.897461 38.1558 18.4415 8.31226 53.9706 8.31226H111.281C146.811 8.31226 164.355 38.1558 164.355 62.1329V127.916C164.355 151.893 146.811 181.737 111.281 181.737ZM70.1672 135.393H95.0849C99.6209 135.393 102.638 133.371 104.502 130.593C106.348 127.839 107.047 124.369 107.047 121.437V68.3624C107.047 65.4304 106.348 61.9604 104.502 59.207C102.638 56.4284 99.6209 54.4068 95.0849 54.4068H70.1672C65.6311 54.4068 62.6136 56.4284 60.7503 59.207C58.9039 61.9604 58.205 65.4304 58.205 68.3624V121.437C58.205 124.369 58.9039 127.839 60.7503 130.593C62.6136 133.371 65.6311 135.393 70.1672 135.393Z" fill="url(#paint0_linear_504_23)"/>
<path d="M228.344 8.31226H276.091V134.893V135.393H276.591H303.75V181.737H178.915V135.393H218.284H218.784V134.893V62.6313V62.0164L218.182 62.1418L182.744 69.5247L170.56 30.5366L228.344 8.31226ZM111.281 181.737H53.9706C18.4415 181.737 0.897461 151.893 0.897461 127.916V62.1329C0.897461 38.1558 18.4415 8.31226 53.9706 8.31226H111.281C146.811 8.31226 164.355 38.1558 164.355 62.1329V127.916C164.355 151.893 146.811 181.737 111.281 181.737ZM70.1672 135.393H95.0849C99.6209 135.393 102.638 133.371 104.502 130.593C106.348 127.839 107.047 124.369 107.047 121.437V68.3624C107.047 65.4304 106.348 61.9604 104.502 59.207C102.638 56.4284 99.6209 54.4068 95.0849 54.4068H70.1672C65.6311 54.4068 62.6136 56.4284 60.7503 59.207C58.9039 61.9604 58.205 65.4304 58.205 68.3624V121.437C58.205 124.369 58.9039 127.839 60.7503 130.593C62.6136 133.371 65.6311 135.393 70.1672 135.393Z" stroke="black"/>
<path d="M234.512 0.911133H282.259V127.492V127.992H282.759H309.918V174.335H185.083V127.992H224.452H224.952V127.492V55.2302V54.6153L224.35 54.7407L188.912 62.1235L176.728 23.1355L234.512 0.911133ZM117.449 174.335H60.1386C24.6095 174.335 7.06543 144.492 7.06543 120.515V54.7318C7.06543 30.7547 24.6095 0.911133 60.1386 0.911133H117.449C152.979 0.911133 170.523 30.7547 170.523 54.7318V120.515C170.523 144.492 152.979 174.335 117.449 174.335ZM76.3351 127.992H101.253C105.789 127.992 108.806 125.97 110.67 123.191C112.516 120.438 113.215 116.968 113.215 114.036V60.9613C113.215 58.0293 112.516 54.5592 110.67 51.8058C108.806 49.0273 105.789 47.0057 101.253 47.0057H76.3351C71.7991 47.0057 68.7816 49.0273 66.9183 51.8058C65.0719 54.5592 64.373 58.0293 64.373 60.9613V114.036C64.373 116.968 65.0719 120.438 66.9183 123.191C68.7816 125.97 71.7991 127.992 76.3351 127.992Z" fill="white"/>
<path d="M234.512 0.911133H282.259V127.492V127.992H282.759H309.918V174.335H185.083V127.992H224.452H224.952V127.492V55.2302V54.6153L224.35 54.7407L188.912 62.1235L176.728 23.1355L234.512 0.911133ZM117.449 174.335H60.1386C24.6095 174.335 7.06543 144.492 7.06543 120.515V54.7318C7.06543 30.7547 24.6095 0.911133 60.1386 0.911133H117.449C152.979 0.911133 170.523 30.7547 170.523 54.7318V120.515C170.523 144.492 152.979 174.335 117.449 174.335ZM76.3351 127.992H101.253C105.789 127.992 108.806 125.97 110.67 123.191C112.516 120.438 113.215 116.968 113.215 114.036V60.9613C113.215 58.0293 112.516 54.5592 110.67 51.8058C108.806 49.0273 105.789 47.0057 101.253 47.0057H76.3351C71.7991 47.0057 68.7816 49.0273 66.9183 51.8058C65.0719 54.5592 64.373 58.0293 64.373 60.9613V114.036C64.373 116.968 65.0719 120.438 66.9183 123.191C68.7816 125.97 71.7991 127.992 76.3351 127.992Z" fill="url(#paint1_linear_504_23)"/>
<path d="M234.512 0.911133H282.259V127.492V127.992H282.759H309.918V174.335H185.083V127.992H224.452H224.952V127.492V55.2302V54.6153L224.35 54.7407L188.912 62.1235L176.728 23.1355L234.512 0.911133ZM117.449 174.335H60.1386C24.6095 174.335 7.06543 144.492 7.06543 120.515V54.7318C7.06543 30.7547 24.6095 0.911133 60.1386 0.911133H117.449C152.979 0.911133 170.523 30.7547 170.523 54.7318V120.515C170.523 144.492 152.979 174.335 117.449 174.335ZM76.3351 127.992H101.253C105.789 127.992 108.806 125.97 110.67 123.191C112.516 120.438 113.215 116.968 113.215 114.036V60.9613C113.215 58.0293 112.516 54.5592 110.67 51.8058C108.806 49.0273 105.789 47.0057 101.253 47.0057H76.3351C71.7991 47.0057 68.7816 49.0273 66.9183 51.8058C65.0719 54.5592 64.373 58.0293 64.373 60.9613V114.036C64.373 116.968 65.0719 120.438 66.9183 123.191C68.7816 125.97 71.7991 127.992 76.3351 127.992Z" fill="url(#paint2_linear_504_23)"/>
<path d="M234.512 0.911133H282.259V127.492V127.992H282.759H309.918V174.335H185.083V127.992H224.452H224.952V127.492V55.2302V54.6153L224.35 54.7407L188.912 62.1235L176.728 23.1355L234.512 0.911133ZM117.449 174.335H60.1386C24.6095 174.335 7.06543 144.492 7.06543 120.515V54.7318C7.06543 30.7547 24.6095 0.911133 60.1386 0.911133H117.449C152.979 0.911133 170.523 30.7547 170.523 54.7318V120.515C170.523 144.492 152.979 174.335 117.449 174.335ZM76.3351 127.992H101.253C105.789 127.992 108.806 125.97 110.67 123.191C112.516 120.438 113.215 116.968 113.215 114.036V60.9613C113.215 58.0293 112.516 54.5592 110.67 51.8058C108.806 49.0273 105.789 47.0057 101.253 47.0057H76.3351C71.7991 47.0057 68.7816 49.0273 66.9183 51.8058C65.0719 54.5592 64.373 58.0293 64.373 60.9613V114.036C64.373 116.968 65.0719 120.438 66.9183 123.191C68.7816 125.97 71.7991 127.992 76.3351 127.992Z" stroke="black"/>
<g filter="url(#filter0_d_504_23)">
<path d="M155.632 33.9296C157.18 33.0348 159.088 33.0348 160.636 33.9296L203.571 58.7456C205.117 59.6391 206.069 61.2891 206.069 63.0746V112.716C206.069 114.502 205.117 116.152 203.571 117.045L160.636 141.861C159.088 142.756 157.18 142.756 155.632 141.861L112.697 117.045C111.151 116.152 110.199 114.502 110.199 112.716V63.0746C110.199 61.2891 111.151 59.6391 112.697 58.7456L155.632 33.9296Z" fill="white"/>
<path d="M155.882 34.3625C157.275 33.5572 158.993 33.5572 160.386 34.3625L203.321 59.1785C204.713 59.9827 205.569 61.4677 205.569 63.0746V112.716C205.569 114.323 204.713 115.808 203.321 116.612L160.386 141.428C158.993 142.234 157.275 142.234 155.882 141.428L112.947 116.612C111.556 115.808 110.699 114.323 110.699 112.716V63.0746C110.699 61.4676 111.556 59.9827 112.947 59.1785L155.882 34.3625Z" stroke="black"/>
</g>
<path d="M176.18 63.3223H184.198L185.431 70.1068L176.796 78.7417L170.012 85.5262L165.694 89.8436L162.61 92.9275H158.293L157.676 93.5443V97.8617V99.712H149.658V89.8436H155.209V84.9094H160.143V79.3584H165.694V73.8075H170.629V68.8732H176.18V63.3223Z" fill="white"/>
<rect x="157.594" y="92.5515" width="5.25602" height="5.25602" fill="black"/>
<rect x="144.454" y="97.8086" width="13.14" height="5.25602" fill="black"/>
<rect x="157.594" y="103.066" width="5.25602" height="9.63603" fill="black"/>
<rect x="183.879" y="58.3879" width="5.25602" height="5.25602" fill="black"/>
<rect x="149.711" y="84.6685" width="5.25602" height="5.25602" fill="black"/>
<rect x="139.201" y="103.066" width="5.25602" height="5.25602" fill="black"/>
<rect x="139.201" y="108.318" width="5.25602" height="5.25602" fill="black"/>
<rect x="133.939" y="103.066" width="5.25602" height="5.25602" fill="black"/>
<rect x="139.201" y="97.8086" width="5.25602" height="5.25602" fill="black"/>
<rect x="144.454" y="103.066" width="5.25602" height="5.25602" fill="black"/>
<rect x="152.337" y="103.066" width="5.25602" height="5.25602" fill="black"/>
<rect x="139.201" y="89.9207" width="5.25602" height="5.25602" fill="black"/>
<rect x="133.939" y="108.318" width="5.25602" height="5.25602" fill="black"/>
<rect x="128.688" y="113.58" width="5.25602" height="5.25602" fill="black"/>
<rect x="133.939" y="113.58" width="5.25602" height="5.25602" fill="black"/>
<rect x="128.688" y="108.318" width="5.25602" height="5.25602" fill="black"/>
<rect x="144.454" y="89.9207" width="5.25602" height="13.14" fill="black"/>
<rect x="134.821" y="84.6685" width="9.63603" height="5.25602" fill="black"/>
<rect x="162.856" y="87.2993" width="5.25602" height="5.25602" fill="black"/>
<rect x="154.963" y="79.4114" width="5.25602" height="5.25602" fill="black"/>
<rect x="168.108" y="82.0374" width="5.25602" height="5.25602" fill="black"/>
<rect x="160.229" y="74.1543" width="5.25602" height="5.25602" fill="black"/>
<rect x="173.365" y="76.7852" width="5.25602" height="5.25602" fill="black"/>
<rect x="165.482" y="68.9021" width="5.25602" height="5.25602" fill="black"/>
<rect x="178.617" y="71.5234" width="5.25602" height="5.25602" fill="black"/>
<rect x="170.734" y="63.6401" width="5.25602" height="5.25602" fill="black"/>
<rect x="183.879" y="63.6401" width="5.25602" height="7.88403" fill="black"/>
<rect x="175.991" y="58.3879" width="7.88403" height="5.25602" fill="black"/>
<defs>
<filter id="filter0_d_504_23" x="103.199" y="30.2585" width="109.87" height="123.274" filterUnits="userSpaceOnUse" color-interpolation-filters="sRGB">
<feFlood flood-opacity="0" result="BackgroundImageFix"/>
<feColorMatrix in="SourceAlpha" type="matrix" values="0 0 0 0 0 0 0 0 0 0 0 0 0 0 0 0 0 0 127 0" result="hardAlpha"/>
<feOffset dy="4"/>
<feGaussianBlur stdDeviation="3.5"/>
<feComposite in2="hardAlpha" operator="out"/>
<feColorMatrix type="matrix" values="0 0 0 0 0 0 0 0 0 0 0 0 0 0 0 0 0 0 0.35 0"/>
<feBlend mode="normal" in2="BackgroundImageFix" result="effect1_dropShadow_504_23"/>
<feBlend mode="normal" in="SourceGraphic" in2="effect1_dropShadow_504_23" result="shape"/>
</filter>
<linearGradient id="paint0_linear_504_23" x1="53.604" y1="-13.2806" x2="1332.8" y2="161.267" gradientUnits="userSpaceOnUse">
<stop stop-color="#1C0477"/>
<stop offset="1" stop-color="#D11D6F"/>
</linearGradient>
<linearGradient id="paint1_linear_504_23" x1="59.772" y1="-20.6817" x2="1338.97" y2="153.866" gradientUnits="userSpaceOnUse">
<stop stop-color="#1C0477"/>
<stop offset="1" stop-color="#D11D6F"/>
</linearGradient>
<linearGradient id="paint2_linear_504_23" x1="59.772" y1="-20.6817" x2="1338.97" y2="153.866" gradientUnits="userSpaceOnUse">
<stop stop-color="#4415FF"/>
<stop offset="1" stop-color="#D11D6F"/>
</linearGradient>
</defs>
</svg>
