<svg width="331" height="180" viewBox="0 0 331 180" fill="none" xmlns="http://www.w3.org/2000/svg">
<path d="M211.393 82.9665L211.395 82.9659L258.155 67.3793C260.772 66.5068 262.448 65.367 263.468 64.1158C264.494 62.8579 264.829 61.5241 264.829 60.3293V56.4327C264.829 55.9549 264.817 55.5193 264.714 55.1663C264.597 54.7673 264.363 54.4637 263.963 54.2755C263.61 54.1095 263.153 54.0464 262.61 54.0156C262.06 53.9844 261.348 53.9844 260.448 53.9844H260.432H186.403L185.927 12.5627L186.046 12.5514C186.424 12.5158 186.982 12.4635 187.701 12.3969C189.138 12.2638 191.217 12.0736 193.784 11.8453C198.92 11.3888 206.012 10.7801 213.833 10.1714C229.482 8.95362 248.034 7.73755 259.702 7.73755C283.873 7.73755 299.133 13.0227 308.35 21.2787C317.555 29.5242 320.817 40.8116 320.817 53.0231V63.2518C320.817 64.9244 320.823 66.5337 320.828 68.0837C320.851 74.5642 320.87 80.0084 320.458 84.7082C319.947 90.5204 318.781 95.1305 316.181 99.0819C313.582 103.033 309.516 106.376 303.113 109.587C296.705 112.801 287.989 115.865 276.124 119.273L276.124 119.273L241.541 129.258L241.517 129.265L241.494 129.274C241.451 129.291 241.409 129.308 241.366 129.325C240.836 129.535 240.288 129.753 239.895 130.146C239.43 130.611 239.231 131.251 239.231 132.174V132.904V133.404H239.731H319.6V178.677H173.745V132.661C173.745 120.202 173.819 110.92 178.513 103.178C183.196 95.4524 192.546 89.1679 211.393 82.9665ZM108.819 178.677H52.8045C18.0871 178.677 0.943359 149.516 0.943359 126.085V61.7906C0.943359 38.3603 18.0871 9.19879 52.8045 9.19879H108.819C143.536 9.19879 160.68 38.3603 160.68 61.7906V126.085C160.68 149.516 143.536 178.677 108.819 178.677ZM68.6347 133.404H92.9887C97.4261 133.404 100.379 131.426 102.202 128.708C104.008 126.014 104.692 122.62 104.692 119.753V67.8791C104.692 65.0119 104.008 61.618 102.202 58.9245C100.379 56.2058 97.4261 54.2279 92.9887 54.2279H68.6347C64.1973 54.2279 61.2446 56.2058 59.4215 58.9245C57.6153 61.618 56.9318 65.0119 56.9318 67.8791V119.753C56.9318 122.62 57.6153 126.014 59.4215 128.708C61.2446 131.426 64.1973 133.404 68.6347 133.404Z" fill="white"/>
<path d="M211.393 82.9665L211.395 82.9659L258.155 67.3793C260.772 66.5068 262.448 65.367 263.468 64.1158C264.494 62.8579 264.829 61.5241 264.829 60.3293V56.4327C264.829 55.9549 264.817 55.5193 264.714 55.1663C264.597 54.7673 264.363 54.4637 263.963 54.2755C263.61 54.1095 263.153 54.0464 262.61 54.0156C262.06 53.9844 261.348 53.9844 260.448 53.9844H260.432H186.403L185.927 12.5627L186.046 12.5514C186.424 12.5158 186.982 12.4635 187.701 12.3969C189.138 12.2638 191.217 12.0736 193.784 11.8453C198.92 11.3888 206.012 10.7801 213.833 10.1714C229.482 8.95362 248.034 7.73755 259.702 7.73755C283.873 7.73755 299.133 13.0227 308.35 21.2787C317.555 29.5242 320.817 40.8116 320.817 53.0231V63.2518C320.817 64.9244 320.823 66.5337 320.828 68.0837C320.851 74.5642 320.87 80.0084 320.458 84.7082C319.947 90.5204 318.781 95.1305 316.181 99.0819C313.582 103.033 309.516 106.376 303.113 109.587C296.705 112.801 287.989 115.865 276.124 119.273L276.124 119.273L241.541 129.258L241.517 129.265L241.494 129.274C241.451 129.291 241.409 129.308 241.366 129.325C240.836 129.535 240.288 129.753 239.895 130.146C239.43 130.611 239.231 131.251 239.231 132.174V132.904V133.404H239.731H319.6V178.677H173.745V132.661C173.745 120.202 173.819 110.92 178.513 103.178C183.196 95.4524 192.546 89.1679 211.393 82.9665ZM108.819 178.677H52.8045C18.0871 178.677 0.943359 149.516 0.943359 126.085V61.7906C0.943359 38.3603 18.0871 9.19879 52.8045 9.19879H108.819C143.536 9.19879 160.68 38.3603 160.68 61.7906V126.085C160.68 149.516 143.536 178.677 108.819 178.677ZM68.6347 133.404H92.9887C97.4261 133.404 100.379 131.426 102.202 128.708C104.008 126.014 104.692 122.62 104.692 119.753V67.8791C104.692 65.0119 104.008 61.618 102.202 58.9245C100.379 56.2058 97.4261 54.2279 92.9887 54.2279H68.6347C64.1973 54.2279 61.2446 56.2058 59.4215 58.9245C57.6153 61.618 56.9318 65.0119 56.9318 67.8791V119.753C56.9318 122.62 57.6153 126.014 59.4215 128.708C61.2446 131.426 64.1973 133.404 68.6347 133.404Z" fill="url(#paint0_linear_442_1093)"/>
<path d="M211.393 82.9665L211.395 82.9659L258.155 67.3793C260.772 66.5068 262.448 65.367 263.468 64.1158C264.494 62.8579 264.829 61.5241 264.829 60.3293V56.4327C264.829 55.9549 264.817 55.5193 264.714 55.1663C264.597 54.7673 264.363 54.4637 263.963 54.2755C263.61 54.1095 263.153 54.0464 262.61 54.0156C262.06 53.9844 261.348 53.9844 260.448 53.9844H260.432H186.403L185.927 12.5627L186.046 12.5514C186.424 12.5158 186.982 12.4635 187.701 12.3969C189.138 12.2638 191.217 12.0736 193.784 11.8453C198.92 11.3888 206.012 10.7801 213.833 10.1714C229.482 8.95362 248.034 7.73755 259.702 7.73755C283.873 7.73755 299.133 13.0227 308.35 21.2787C317.555 29.5242 320.817 40.8116 320.817 53.0231V63.2518C320.817 64.9244 320.823 66.5337 320.828 68.0837C320.851 74.5642 320.87 80.0084 320.458 84.7082C319.947 90.5204 318.781 95.1305 316.181 99.0819C313.582 103.033 309.516 106.376 303.113 109.587C296.705 112.801 287.989 115.865 276.124 119.273L276.124 119.273L241.541 129.258L241.517 129.265L241.494 129.274C241.451 129.291 241.409 129.308 241.366 129.325C240.836 129.535 240.288 129.753 239.895 130.146C239.43 130.611 239.231 131.251 239.231 132.174V132.904V133.404H239.731H319.6V178.677H173.745V132.661C173.745 120.202 173.819 110.92 178.513 103.178C183.196 95.4524 192.546 89.1679 211.393 82.9665ZM108.819 178.677H52.8045C18.0871 178.677 0.943359 149.516 0.943359 126.085V61.7906C0.943359 38.3603 18.0871 9.19879 52.8045 9.19879H108.819C143.536 9.19879 160.68 38.3603 160.68 61.7906V126.085C160.68 149.516 143.536 178.677 108.819 178.677ZM68.6347 133.404H92.9887C97.4261 133.404 100.379 131.426 102.202 128.708C104.008 126.014 104.692 122.62 104.692 119.753V67.8791C104.692 65.0119 104.008 61.618 102.202 58.9245C100.379 56.2058 97.4261 54.2279 92.9887 54.2279H68.6347C64.1973 54.2279 61.2446 56.2058 59.4215 58.9245C57.6153 61.618 56.9318 65.0119 56.9318 67.8791V119.753C56.9318 122.62 57.6153 126.014 59.4215 128.708C61.2446 131.426 64.1973 133.404 68.6347 133.404Z" stroke="black"/>
<path d="M221.038 75.7326L221.04 75.732L267.799 60.1454C270.417 59.2729 272.092 58.1331 273.113 56.882C274.139 55.624 274.473 54.2902 274.473 53.0955V49.1988C274.473 48.7211 274.461 48.2854 274.358 47.9324C274.242 47.5334 274.008 47.2298 273.608 47.0416C273.255 46.8756 272.797 46.8125 272.255 46.7817C271.704 46.7505 270.993 46.7505 270.093 46.7505H270.077H196.048L195.572 5.32881L195.691 5.31756C196.069 5.28191 196.627 5.22961 197.345 5.16304C198.782 5.0299 200.861 4.8397 203.429 4.61144C208.565 4.15491 215.656 3.54623 223.478 2.93756C239.127 1.71973 257.678 0.503662 269.346 0.503662C293.517 0.503662 308.778 5.78886 317.995 14.0448C327.2 22.2903 330.462 33.5777 330.462 45.7892V56.0179C330.462 57.6905 330.467 59.2998 330.473 60.8498C330.496 67.3303 330.515 72.7745 330.102 77.4743C329.592 83.2865 328.425 87.8967 325.826 91.848C323.226 95.7987 319.161 99.1426 312.758 102.354C306.35 105.567 297.634 108.631 285.769 112.039L285.768 112.039L251.185 122.024L251.161 122.031L251.138 122.04C251.096 122.057 251.053 122.074 251.01 122.091C250.481 122.302 249.933 122.519 249.54 122.912C249.075 123.377 248.876 124.018 248.876 124.94V125.67V126.17H249.376H329.244V171.443H183.389V125.427C183.389 112.969 183.464 103.686 188.157 95.9438C192.84 88.2185 202.19 81.934 221.038 75.7326ZM118.463 171.443H62.4491C27.7317 171.443 10.5879 142.282 10.5879 118.851V54.5567C10.5879 31.1264 27.7317 1.9649 62.4491 1.9649H118.463C153.181 1.9649 170.325 31.1264 170.325 54.5567V118.851C170.325 142.282 153.181 171.443 118.463 171.443ZM78.2792 126.17H102.633C107.071 126.17 110.023 124.193 111.846 121.474C113.653 118.78 114.336 115.386 114.336 112.519V60.6452C114.336 57.778 113.653 54.3841 111.846 51.6906C110.023 48.972 107.071 46.994 102.633 46.994H78.2792C73.8418 46.994 70.8891 48.972 69.066 51.6906C67.2598 54.3841 66.5763 57.778 66.5763 60.6452V112.519C66.5763 115.386 67.2598 118.78 69.066 121.474C70.8891 124.193 73.8418 126.17 78.2792 126.17Z" fill="white"/>
<path d="M221.038 75.7326L221.04 75.732L267.799 60.1454C270.417 59.2729 272.092 58.1331 273.113 56.882C274.139 55.624 274.473 54.2902 274.473 53.0955V49.1988C274.473 48.7211 274.461 48.2854 274.358 47.9324C274.242 47.5334 274.008 47.2298 273.608 47.0416C273.255 46.8756 272.797 46.8125 272.255 46.7817C271.704 46.7505 270.993 46.7505 270.093 46.7505H270.077H196.048L195.572 5.32881L195.691 5.31756C196.069 5.28191 196.627 5.22961 197.345 5.16304C198.782 5.0299 200.861 4.8397 203.429 4.61144C208.565 4.15491 215.656 3.54623 223.478 2.93756C239.127 1.71973 257.678 0.503662 269.346 0.503662C293.517 0.503662 308.778 5.78886 317.995 14.0448C327.2 22.2903 330.462 33.5777 330.462 45.7892V56.0179C330.462 57.6905 330.467 59.2998 330.473 60.8498C330.496 67.3303 330.515 72.7745 330.102 77.4743C329.592 83.2865 328.425 87.8967 325.826 91.848C323.226 95.7987 319.161 99.1426 312.758 102.354C306.35 105.567 297.634 108.631 285.769 112.039L285.768 112.039L251.185 122.024L251.161 122.031L251.138 122.04C251.096 122.057 251.053 122.074 251.01 122.091C250.481 122.302 249.933 122.519 249.54 122.912C249.075 123.377 248.876 124.018 248.876 124.94V125.67V126.17H249.376H329.244V171.443H183.389V125.427C183.389 112.969 183.464 103.686 188.157 95.9438C192.84 88.2185 202.19 81.934 221.038 75.7326ZM118.463 171.443H62.4491C27.7317 171.443 10.5879 142.282 10.5879 118.851V54.5567C10.5879 31.1264 27.7317 1.9649 62.4491 1.9649H118.463C153.181 1.9649 170.325 31.1264 170.325 54.5567V118.851C170.325 142.282 153.181 171.443 118.463 171.443ZM78.2792 126.17H102.633C107.071 126.17 110.023 124.193 111.846 121.474C113.653 118.78 114.336 115.386 114.336 112.519V60.6452C114.336 57.778 113.653 54.3841 111.846 51.6906C110.023 48.972 107.071 46.994 102.633 46.994H78.2792C73.8418 46.994 70.8891 48.972 69.066 51.6906C67.2598 54.3841 66.5763 57.778 66.5763 60.6452V112.519C66.5763 115.386 67.2598 118.78 69.066 121.474C70.8891 124.193 73.8418 126.17 78.2792 126.17Z" fill="url(#paint1_linear_442_1093)"/>
<path d="M221.038 75.7326L221.04 75.732L267.799 60.1454C270.417 59.2729 272.092 58.1331 273.113 56.882C274.139 55.624 274.473 54.2902 274.473 53.0955V49.1988C274.473 48.7211 274.461 48.2854 274.358 47.9324C274.242 47.5334 274.008 47.2298 273.608 47.0416C273.255 46.8756 272.797 46.8125 272.255 46.7817C271.704 46.7505 270.993 46.7505 270.093 46.7505H270.077H196.048L195.572 5.32881L195.691 5.31756C196.069 5.28191 196.627 5.22961 197.345 5.16304C198.782 5.0299 200.861 4.8397 203.429 4.61144C208.565 4.15491 215.656 3.54623 223.478 2.93756C239.127 1.71973 257.678 0.503662 269.346 0.503662C293.517 0.503662 308.778 5.78886 317.995 14.0448C327.2 22.2903 330.462 33.5777 330.462 45.7892V56.0179C330.462 57.6905 330.467 59.2998 330.473 60.8498C330.496 67.3303 330.515 72.7745 330.102 77.4743C329.592 83.2865 328.425 87.8967 325.826 91.848C323.226 95.7987 319.161 99.1426 312.758 102.354C306.35 105.567 297.634 108.631 285.769 112.039L285.768 112.039L251.185 122.024L251.161 122.031L251.138 122.04C251.096 122.057 251.053 122.074 251.01 122.091C250.481 122.302 249.933 122.519 249.54 122.912C249.075 123.377 248.876 124.018 248.876 124.94V125.67V126.17H249.376H329.244V171.443H183.389V125.427C183.389 112.969 183.464 103.686 188.157 95.9438C192.84 88.2185 202.19 81.934 221.038 75.7326ZM118.463 171.443H62.4491C27.7317 171.443 10.5879 142.282 10.5879 118.851V54.5567C10.5879 31.1264 27.7317 1.9649 62.4491 1.9649H118.463C153.181 1.9649 170.325 31.1264 170.325 54.5567V118.851C170.325 142.282 153.181 171.443 118.463 171.443ZM78.2792 126.17H102.633C107.071 126.17 110.023 124.193 111.846 121.474C113.653 118.78 114.336 115.386 114.336 112.519V60.6452C114.336 57.778 113.653 54.3841 111.846 51.6906C110.023 48.972 107.071 46.994 102.633 46.994H78.2792C73.8418 46.994 70.8891 48.972 69.066 51.6906C67.2598 54.3841 66.5763 57.778 66.5763 60.6452V112.519C66.5763 115.386 67.2598 118.78 69.066 121.474C70.8891 124.193 73.8418 126.17 78.2792 126.17Z" fill="url(#paint2_linear_442_1093)"/>
<path d="M221.038 75.7326L221.04 75.732L267.799 60.1454C270.417 59.2729 272.092 58.1331 273.113 56.882C274.139 55.624 274.473 54.2902 274.473 53.0955V49.1988C274.473 48.7211 274.461 48.2854 274.358 47.9324C274.242 47.5334 274.008 47.2298 273.608 47.0416C273.255 46.8756 272.797 46.8125 272.255 46.7817C271.704 46.7505 270.993 46.7505 270.093 46.7505H270.077H196.048L195.572 5.32881L195.691 5.31756C196.069 5.28191 196.627 5.22961 197.345 5.16304C198.782 5.0299 200.861 4.8397 203.429 4.61144C208.565 4.15491 215.656 3.54623 223.478 2.93756C239.127 1.71973 257.678 0.503662 269.346 0.503662C293.517 0.503662 308.778 5.78886 317.995 14.0448C327.2 22.2903 330.462 33.5777 330.462 45.7892V56.0179C330.462 57.6905 330.467 59.2998 330.473 60.8498C330.496 67.3303 330.515 72.7745 330.102 77.4743C329.592 83.2865 328.425 87.8967 325.826 91.848C323.226 95.7987 319.161 99.1426 312.758 102.354C306.35 105.567 297.634 108.631 285.769 112.039L285.768 112.039L251.185 122.024L251.161 122.031L251.138 122.04C251.096 122.057 251.053 122.074 251.01 122.091C250.481 122.302 249.933 122.519 249.54 122.912C249.075 123.377 248.876 124.018 248.876 124.94V125.67V126.17H249.376H329.244V171.443H183.389V125.427C183.389 112.969 183.464 103.686 188.157 95.9438C192.84 88.2185 202.19 81.934 221.038 75.7326ZM118.463 171.443H62.4491C27.7317 171.443 10.5879 142.282 10.5879 118.851V54.5567C10.5879 31.1264 27.7317 1.9649 62.4491 1.9649H118.463C153.181 1.9649 170.325 31.1264 170.325 54.5567V118.851C170.325 142.282 153.181 171.443 118.463 171.443ZM78.2792 126.17H102.633C107.071 126.17 110.023 124.193 111.846 121.474C113.653 118.78 114.336 115.386 114.336 112.519V60.6452C114.336 57.778 113.653 54.3841 111.846 51.6906C110.023 48.972 107.071 46.994 102.633 46.994H78.2792C73.8418 46.994 70.8891 48.972 69.066 51.6906C67.2598 54.3841 66.5763 57.778 66.5763 60.6452V112.519C66.5763 115.386 67.2598 118.78 69.066 121.474C70.8891 124.193 73.8418 126.17 78.2792 126.17Z" stroke="black"/>
<g filter="url(#filter0_d_442_1093)">
<path d="M167.782 32.7965C169.33 31.9018 171.238 31.9017 172.786 32.7965L214.637 56.9858C216.183 57.8793 217.135 59.5293 217.135 61.3147V109.703C217.135 111.488 216.183 113.138 214.637 114.032L172.786 138.221C171.238 139.116 169.33 139.116 167.782 138.221L125.931 114.032C124.385 113.138 123.433 111.488 123.433 109.703V61.3147C123.433 59.5293 124.385 57.8793 125.931 56.9858L167.782 32.7965Z" fill="white"/>
<path d="M168.032 33.2294C169.426 32.4241 171.143 32.4241 172.536 33.2294L214.387 57.4187C215.778 58.2228 216.635 59.7078 216.635 61.3147V109.703C216.635 111.31 215.778 112.795 214.387 113.599L172.536 137.788C171.143 138.593 169.426 138.593 168.032 137.788L126.182 113.599C124.79 112.795 123.933 111.31 123.933 109.703V61.3147C123.933 59.7078 124.79 58.2228 126.182 57.4187L168.032 33.2294Z" stroke="black"/>
</g>
<rect x="162.739" y="72.6533" width="5.13372" height="29.091" fill="black"/>
<rect x="149.049" y="72.6533" width="5.13372" height="13.6899" fill="black"/>
<rect x="149.049" y="86.3438" width="5.13372" height="5.13372" fill="black"/>
<rect x="154.182" y="91.4773" width="5.13372" height="5.13372" fill="black"/>
<rect x="159.315" y="89.7678" width="5.13372" height="11.9787" fill="black"/>
<rect x="143.915" y="77.7866" width="5.13372" height="8.55619" fill="black"/>
<rect x="167.873" y="77.7866" width="5.13372" height="24.813" fill="black"/>
<rect x="173.006" y="72.6533" width="5.13372" height="29.091" fill="black"/>
<rect x="186.696" y="72.6533" width="5.13372" height="13.6899" fill="black"/>
<rect x="186.696" y="86.3438" width="5.13372" height="5.13372" fill="black"/>
<rect x="176.43" y="96.6106" width="5.13372" height="5.13372" fill="black"/>
<rect x="171.296" y="101.744" width="5.13372" height="5.13372" fill="black"/>
<rect x="164.449" y="101.744" width="7.70057" height="5.13372" fill="black"/>
<rect x="178.14" y="67.5198" width="8.55619" height="29.091" fill="black"/>
<rect x="191.83" y="86.3438" width="8.55619" height="5.13372" transform="rotate(-90 191.83 86.3438)" fill="black"/>
<rect x="154.182" y="67.5198" width="8.55619" height="23.9573" fill="black"/>
<rect x="181.918" y="76.4273" width="4.42404" height="4.42404" fill="white" stroke="white" stroke-width="0.709677"/>
<rect x="175.071" y="79.8558" width="4.42404" height="4.42404" fill="white" stroke="white" stroke-width="0.709677"/>
<defs>
<filter id="filter0_d_442_1093" x="116.434" y="29.1255" width="107.701" height="120.767" filterUnits="userSpaceOnUse" color-interpolation-filters="sRGB">
<feFlood flood-opacity="0" result="BackgroundImageFix"/>
<feColorMatrix in="SourceAlpha" type="matrix" values="0 0 0 0 0 0 0 0 0 0 0 0 0 0 0 0 0 0 127 0" result="hardAlpha"/>
<feOffset dy="4"/>
<feGaussianBlur stdDeviation="3.5"/>
<feComposite in2="hardAlpha" operator="out"/>
<feColorMatrix type="matrix" values="0 0 0 0 0 0 0 0 0 0 0 0 0 0 0 0 0 0 0.35 0"/>
<feBlend mode="normal" in2="BackgroundImageFix" result="effect1_dropShadow_442_1093"/>
<feBlend mode="normal" in="SourceGraphic" in2="effect1_dropShadow_442_1093" result="shape"/>
</filter>
<linearGradient id="paint0_linear_442_1093" x1="-416.55" y1="-11.9168" x2="833.704" y2="158.682" gradientUnits="userSpaceOnUse">
<stop stop-color="#1C0477"/>
<stop offset="1" stop-color="#D11D6F"/>
</linearGradient>
<linearGradient id="paint1_linear_442_1093" x1="-406.905" y1="-19.1506" x2="843.349" y2="151.448" gradientUnits="userSpaceOnUse">
<stop stop-color="#1C0477"/>
<stop offset="1" stop-color="#D11D6F"/>
</linearGradient>
<linearGradient id="paint2_linear_442_1093" x1="-406.905" y1="-19.1506" x2="843.349" y2="151.448" gradientUnits="userSpaceOnUse">
<stop stop-color="#4415FF"/>
<stop offset="1" stop-color="#D11D6F"/>
</linearGradient>
</defs>
</svg>
