<svg width="321" height="180" viewBox="0 0 321 180" fill="none" xmlns="http://www.w3.org/2000/svg">
<path d="M290.107 91.5923L289.061 92.1649L290.203 92.5096C296.53 94.4199 301.9 97.1485 305.691 101.498C309.473 105.836 311.73 111.843 311.73 120.407V133.874C311.73 145.415 307.508 156.584 299.016 164.868C290.526 173.149 277.733 178.583 260.528 178.583C241.304 178.583 218.891 177.562 201.279 176.54C192.475 176.029 184.872 175.518 179.47 175.135C176.769 174.944 174.619 174.784 173.144 174.672C172.407 174.616 171.838 174.573 171.454 174.543L171.335 174.533L171.806 132.45H244.897C246.999 132.45 248.761 132.435 250.214 132.325C251.663 132.214 252.85 132.006 253.785 131.596C254.74 131.177 255.43 130.548 255.866 129.628C256.292 128.73 256.459 127.591 256.459 126.179V121.609C256.459 120.253 256.291 119.149 255.888 118.268C255.477 117.369 254.836 116.732 253.958 116.293C253.097 115.862 252.02 115.629 250.734 115.498C249.444 115.368 247.904 115.338 246.099 115.338H197.783V73.2928H246.099C248.213 73.2928 249.914 73.2026 251.274 72.974C252.632 72.7457 253.689 72.3734 254.484 71.7811C256.112 70.5689 256.459 68.5838 256.459 65.819V58.3643C256.459 56.3232 256.23 54.748 255.236 53.7184C254.24 52.686 252.603 52.3333 250.187 52.3333H171.806L171.336 11.6927L171.454 11.6835C171.838 11.6536 172.407 11.6097 173.144 11.5538C174.619 11.4421 176.769 11.2825 179.47 11.0909C184.872 10.7078 192.475 10.1969 201.279 9.68603C218.891 8.66419 241.304 7.64282 260.528 7.64282C277.733 7.64282 290.526 13.0768 299.016 21.3582C307.508 29.6423 311.73 40.8115 311.73 52.3524V65.819C311.73 78.0033 302.868 84.6098 290.107 91.5923ZM107.583 177.14H52.2737C17.9975 177.14 1.07129 148.35 1.07129 125.217V61.7309C1.07129 38.5978 17.9975 9.80711 52.2737 9.80711H107.583C141.859 9.80711 158.786 38.5978 158.786 61.7309V125.217C158.786 148.35 141.859 177.14 107.583 177.14ZM67.9046 132.45H91.9523C96.336 132.45 99.2535 130.496 101.055 127.81C102.839 125.149 103.514 121.796 103.514 118.964V67.7428C103.514 64.9109 102.839 61.5583 101.055 58.8974C99.2535 56.2113 96.336 54.2571 91.9523 54.2571H67.9046C63.5209 54.2571 60.6034 56.2113 58.8022 58.8974C57.0178 61.5583 56.3427 64.9109 56.3427 67.7428V118.964C56.3427 121.796 57.0178 125.149 58.8022 127.81C60.6034 130.496 63.5209 132.45 67.9046 132.45Z" fill="white"/>
<path d="M290.107 91.5923L289.061 92.1649L290.203 92.5096C296.53 94.4199 301.9 97.1485 305.691 101.498C309.473 105.836 311.73 111.843 311.73 120.407V133.874C311.73 145.415 307.508 156.584 299.016 164.868C290.526 173.149 277.733 178.583 260.528 178.583C241.304 178.583 218.891 177.562 201.279 176.54C192.475 176.029 184.872 175.518 179.47 175.135C176.769 174.944 174.619 174.784 173.144 174.672C172.407 174.616 171.838 174.573 171.454 174.543L171.335 174.533L171.806 132.45H244.897C246.999 132.45 248.761 132.435 250.214 132.325C251.663 132.214 252.85 132.006 253.785 131.596C254.74 131.177 255.43 130.548 255.866 129.628C256.292 128.73 256.459 127.591 256.459 126.179V121.609C256.459 120.253 256.291 119.149 255.888 118.268C255.477 117.369 254.836 116.732 253.958 116.293C253.097 115.862 252.02 115.629 250.734 115.498C249.444 115.368 247.904 115.338 246.099 115.338H197.783V73.2928H246.099C248.213 73.2928 249.914 73.2026 251.274 72.974C252.632 72.7457 253.689 72.3734 254.484 71.7811C256.112 70.5689 256.459 68.5838 256.459 65.819V58.3643C256.459 56.3232 256.23 54.748 255.236 53.7184C254.24 52.686 252.603 52.3333 250.187 52.3333H171.806L171.336 11.6927L171.454 11.6835C171.838 11.6536 172.407 11.6097 173.144 11.5538C174.619 11.4421 176.769 11.2825 179.47 11.0909C184.872 10.7078 192.475 10.1969 201.279 9.68603C218.891 8.66419 241.304 7.64282 260.528 7.64282C277.733 7.64282 290.526 13.0768 299.016 21.3582C307.508 29.6423 311.73 40.8115 311.73 52.3524V65.819C311.73 78.0033 302.868 84.6098 290.107 91.5923ZM107.583 177.14H52.2737C17.9975 177.14 1.07129 148.35 1.07129 125.217V61.7309C1.07129 38.5978 17.9975 9.80711 52.2737 9.80711H107.583C141.859 9.80711 158.786 38.5978 158.786 61.7309V125.217C158.786 148.35 141.859 177.14 107.583 177.14ZM67.9046 132.45H91.9523C96.336 132.45 99.2535 130.496 101.055 127.81C102.839 125.149 103.514 121.796 103.514 118.964V67.7428C103.514 64.9109 102.839 61.5583 101.055 58.8974C99.2535 56.2113 96.336 54.2571 91.9523 54.2571H67.9046C63.5209 54.2571 60.6034 56.2113 58.8022 58.8974C57.0178 61.5583 56.3427 64.9109 56.3427 67.7428V118.964C56.3427 121.796 57.0178 125.149 58.8022 127.81C60.6034 130.496 63.5209 132.45 67.9046 132.45Z" fill="url(#paint0_linear_504_24)"/>
<path d="M290.107 91.5923L289.061 92.1649L290.203 92.5096C296.53 94.4199 301.9 97.1485 305.691 101.498C309.473 105.836 311.73 111.843 311.73 120.407V133.874C311.73 145.415 307.508 156.584 299.016 164.868C290.526 173.149 277.733 178.583 260.528 178.583C241.304 178.583 218.891 177.562 201.279 176.54C192.475 176.029 184.872 175.518 179.47 175.135C176.769 174.944 174.619 174.784 173.144 174.672C172.407 174.616 171.838 174.573 171.454 174.543L171.335 174.533L171.806 132.45H244.897C246.999 132.45 248.761 132.435 250.214 132.325C251.663 132.214 252.85 132.006 253.785 131.596C254.74 131.177 255.43 130.548 255.866 129.628C256.292 128.73 256.459 127.591 256.459 126.179V121.609C256.459 120.253 256.291 119.149 255.888 118.268C255.477 117.369 254.836 116.732 253.958 116.293C253.097 115.862 252.02 115.629 250.734 115.498C249.444 115.368 247.904 115.338 246.099 115.338H197.783V73.2928H246.099C248.213 73.2928 249.914 73.2026 251.274 72.974C252.632 72.7457 253.689 72.3734 254.484 71.7811C256.112 70.5689 256.459 68.5838 256.459 65.819V58.3643C256.459 56.3232 256.23 54.748 255.236 53.7184C254.24 52.686 252.603 52.3333 250.187 52.3333H171.806L171.336 11.6927L171.454 11.6835C171.838 11.6536 172.407 11.6097 173.144 11.5538C174.619 11.4421 176.769 11.2825 179.47 11.0909C184.872 10.7078 192.475 10.1969 201.279 9.68603C218.891 8.66419 241.304 7.64282 260.528 7.64282C277.733 7.64282 290.526 13.0768 299.016 21.3582C307.508 29.6423 311.73 40.8115 311.73 52.3524V65.819C311.73 78.0033 302.868 84.6098 290.107 91.5923ZM107.583 177.14H52.2737C17.9975 177.14 1.07129 148.35 1.07129 125.217V61.7309C1.07129 38.5978 17.9975 9.80711 52.2737 9.80711H107.583C141.859 9.80711 158.786 38.5978 158.786 61.7309V125.217C158.786 148.35 141.859 177.14 107.583 177.14ZM67.9046 132.45H91.9523C96.336 132.45 99.2535 130.496 101.055 127.81C102.839 125.149 103.514 121.796 103.514 118.964V67.7428C103.514 64.9109 102.839 61.5583 101.055 58.8974C99.2535 56.2113 96.336 54.2571 91.9523 54.2571H67.9046C63.5209 54.2571 60.6034 56.2113 58.8022 58.8974C57.0178 61.5583 56.3427 64.9109 56.3427 67.7428V118.964C56.3427 121.796 57.0178 125.149 58.8022 127.81C60.6034 130.496 63.5209 132.45 67.9046 132.45Z" stroke="black"/>
<path d="M298.44 84.4495L297.394 85.022L298.536 85.3668C304.863 87.2771 310.233 90.0056 314.024 94.3547C317.806 98.6936 320.063 104.7 320.063 113.264V126.731C320.063 138.272 315.841 149.441 307.349 157.725C298.859 166.007 286.066 171.44 268.861 171.44C249.637 171.44 227.224 170.419 209.612 169.397C200.808 168.886 193.205 168.376 187.803 167.992C185.102 167.801 182.952 167.641 181.477 167.529C180.74 167.474 180.171 167.43 179.787 167.4L179.669 167.391L180.139 125.307H253.23C255.332 125.307 257.094 125.292 258.547 125.182C259.996 125.071 261.183 124.863 262.118 124.453C263.073 124.034 263.763 123.405 264.199 122.485C264.625 121.587 264.792 120.449 264.792 119.036V114.467C264.792 113.11 264.624 112.007 264.221 111.125C263.81 110.226 263.169 109.589 262.291 109.15C261.43 108.719 260.353 108.486 259.067 108.356C257.777 108.225 256.237 108.195 254.432 108.195H206.116V66.15H254.432C256.546 66.15 258.247 66.0598 259.607 65.8312C260.965 65.6029 262.022 65.2305 262.817 64.6382C264.445 63.4261 264.792 61.441 264.792 58.6762V51.2214C264.792 49.1803 264.564 47.6051 263.57 46.5756C262.573 45.5431 260.936 45.1905 258.52 45.1905H180.139L179.669 4.54993L179.787 4.54068C180.171 4.51076 180.74 4.46688 181.477 4.41101C182.952 4.29928 185.102 4.13965 187.803 3.94808C193.205 3.56494 200.808 3.05407 209.612 2.54321C227.224 1.52137 249.637 0.5 268.861 0.5C286.066 0.5 298.859 5.93396 307.349 14.2154C315.841 22.4995 320.063 33.6687 320.063 45.2095V58.6762C320.063 70.8605 311.201 77.4669 298.44 84.4495ZM115.916 169.998H60.6067C26.3305 169.998 9.4043 141.207 9.4043 118.074V54.5881C9.4043 31.455 26.3305 2.66429 60.6067 2.66429H115.916C150.192 2.66429 167.119 31.455 167.119 54.5881V118.074C167.119 141.207 150.192 169.998 115.916 169.998ZM76.2376 125.307H100.285C104.669 125.307 107.586 123.353 109.388 120.667C111.172 118.006 111.847 114.653 111.847 111.821V60.6C111.847 57.7681 111.172 54.4155 109.388 51.7546C107.586 49.0685 104.669 47.1143 100.285 47.1143H76.2376C71.8539 47.1143 68.9364 49.0685 67.1352 51.7546C65.3508 54.4155 64.6757 57.7681 64.6757 60.6V111.821C64.6757 114.653 65.3508 118.006 67.1352 120.667C68.9364 123.353 71.8539 125.307 76.2376 125.307Z" fill="white"/>
<path d="M298.44 84.4495L297.394 85.022L298.536 85.3668C304.863 87.2771 310.233 90.0056 314.024 94.3547C317.806 98.6936 320.063 104.7 320.063 113.264V126.731C320.063 138.272 315.841 149.441 307.349 157.725C298.859 166.007 286.066 171.44 268.861 171.44C249.637 171.44 227.224 170.419 209.612 169.397C200.808 168.886 193.205 168.376 187.803 167.992C185.102 167.801 182.952 167.641 181.477 167.529C180.74 167.474 180.171 167.43 179.787 167.4L179.669 167.391L180.139 125.307H253.23C255.332 125.307 257.094 125.292 258.547 125.182C259.996 125.071 261.183 124.863 262.118 124.453C263.073 124.034 263.763 123.405 264.199 122.485C264.625 121.587 264.792 120.449 264.792 119.036V114.467C264.792 113.11 264.624 112.007 264.221 111.125C263.81 110.226 263.169 109.589 262.291 109.15C261.43 108.719 260.353 108.486 259.067 108.356C257.777 108.225 256.237 108.195 254.432 108.195H206.116V66.15H254.432C256.546 66.15 258.247 66.0598 259.607 65.8312C260.965 65.6029 262.022 65.2305 262.817 64.6382C264.445 63.4261 264.792 61.441 264.792 58.6762V51.2214C264.792 49.1803 264.564 47.6051 263.57 46.5756C262.573 45.5431 260.936 45.1905 258.52 45.1905H180.139L179.669 4.54993L179.787 4.54068C180.171 4.51076 180.74 4.46688 181.477 4.41101C182.952 4.29928 185.102 4.13965 187.803 3.94808C193.205 3.56494 200.808 3.05407 209.612 2.54321C227.224 1.52137 249.637 0.5 268.861 0.5C286.066 0.5 298.859 5.93396 307.349 14.2154C315.841 22.4995 320.063 33.6687 320.063 45.2095V58.6762C320.063 70.8605 311.201 77.4669 298.44 84.4495ZM115.916 169.998H60.6067C26.3305 169.998 9.4043 141.207 9.4043 118.074V54.5881C9.4043 31.455 26.3305 2.66429 60.6067 2.66429H115.916C150.192 2.66429 167.119 31.455 167.119 54.5881V118.074C167.119 141.207 150.192 169.998 115.916 169.998ZM76.2376 125.307H100.285C104.669 125.307 107.586 123.353 109.388 120.667C111.172 118.006 111.847 114.653 111.847 111.821V60.6C111.847 57.7681 111.172 54.4155 109.388 51.7546C107.586 49.0685 104.669 47.1143 100.285 47.1143H76.2376C71.8539 47.1143 68.9364 49.0685 67.1352 51.7546C65.3508 54.4155 64.6757 57.7681 64.6757 60.6V111.821C64.6757 114.653 65.3508 118.006 67.1352 120.667C68.9364 123.353 71.8539 125.307 76.2376 125.307Z" fill="url(#paint1_linear_504_24)"/>
<path d="M298.44 84.4495L297.394 85.022L298.536 85.3668C304.863 87.2771 310.233 90.0056 314.024 94.3547C317.806 98.6936 320.063 104.7 320.063 113.264V126.731C320.063 138.272 315.841 149.441 307.349 157.725C298.859 166.007 286.066 171.44 268.861 171.44C249.637 171.44 227.224 170.419 209.612 169.397C200.808 168.886 193.205 168.376 187.803 167.992C185.102 167.801 182.952 167.641 181.477 167.529C180.74 167.474 180.171 167.43 179.787 167.4L179.669 167.391L180.139 125.307H253.23C255.332 125.307 257.094 125.292 258.547 125.182C259.996 125.071 261.183 124.863 262.118 124.453C263.073 124.034 263.763 123.405 264.199 122.485C264.625 121.587 264.792 120.449 264.792 119.036V114.467C264.792 113.11 264.624 112.007 264.221 111.125C263.81 110.226 263.169 109.589 262.291 109.15C261.43 108.719 260.353 108.486 259.067 108.356C257.777 108.225 256.237 108.195 254.432 108.195H206.116V66.15H254.432C256.546 66.15 258.247 66.0598 259.607 65.8312C260.965 65.6029 262.022 65.2305 262.817 64.6382C264.445 63.4261 264.792 61.441 264.792 58.6762V51.2214C264.792 49.1803 264.564 47.6051 263.57 46.5756C262.573 45.5431 260.936 45.1905 258.52 45.1905H180.139L179.669 4.54993L179.787 4.54068C180.171 4.51076 180.74 4.46688 181.477 4.41101C182.952 4.29928 185.102 4.13965 187.803 3.94808C193.205 3.56494 200.808 3.05407 209.612 2.54321C227.224 1.52137 249.637 0.5 268.861 0.5C286.066 0.5 298.859 5.93396 307.349 14.2154C315.841 22.4995 320.063 33.6687 320.063 45.2095V58.6762C320.063 70.8605 311.201 77.4669 298.44 84.4495ZM115.916 169.998H60.6067C26.3305 169.998 9.4043 141.207 9.4043 118.074V54.5881C9.4043 31.455 26.3305 2.66429 60.6067 2.66429H115.916C150.192 2.66429 167.119 31.455 167.119 54.5881V118.074C167.119 141.207 150.192 169.998 115.916 169.998ZM76.2376 125.307H100.285C104.669 125.307 107.586 123.353 109.388 120.667C111.172 118.006 111.847 114.653 111.847 111.821V60.6C111.847 57.7681 111.172 54.4155 109.388 51.7546C107.586 49.0685 104.669 47.1143 100.285 47.1143H76.2376C71.8539 47.1143 68.9364 49.0685 67.1352 51.7546C65.3508 54.4155 64.6757 57.7681 64.6757 60.6V111.821C64.6757 114.653 65.3508 118.006 67.1352 120.667C68.9364 123.353 71.8539 125.307 76.2376 125.307Z" fill="url(#paint2_linear_504_24)"/>
<path d="M298.44 84.4495L297.394 85.022L298.536 85.3668C304.863 87.2771 310.233 90.0056 314.024 94.3547C317.806 98.6936 320.063 104.7 320.063 113.264V126.731C320.063 138.272 315.841 149.441 307.349 157.725C298.859 166.007 286.066 171.44 268.861 171.44C249.637 171.44 227.224 170.419 209.612 169.397C200.808 168.886 193.205 168.376 187.803 167.992C185.102 167.801 182.952 167.641 181.477 167.529C180.74 167.474 180.171 167.43 179.787 167.4L179.669 167.391L180.139 125.307H253.23C255.332 125.307 257.094 125.292 258.547 125.182C259.996 125.071 261.183 124.863 262.118 124.453C263.073 124.034 263.763 123.405 264.199 122.485C264.625 121.587 264.792 120.449 264.792 119.036V114.467C264.792 113.11 264.624 112.007 264.221 111.125C263.81 110.226 263.169 109.589 262.291 109.15C261.43 108.719 260.353 108.486 259.067 108.356C257.777 108.225 256.237 108.195 254.432 108.195H206.116V66.15H254.432C256.546 66.15 258.247 66.0598 259.607 65.8312C260.965 65.6029 262.022 65.2305 262.817 64.6382C264.445 63.4261 264.792 61.441 264.792 58.6762V51.2214C264.792 49.1803 264.564 47.6051 263.57 46.5756C262.573 45.5431 260.936 45.1905 258.52 45.1905H180.139L179.669 4.54993L179.787 4.54068C180.171 4.51076 180.74 4.46688 181.477 4.41101C182.952 4.29928 185.102 4.13965 187.803 3.94808C193.205 3.56494 200.808 3.05407 209.612 2.54321C227.224 1.52137 249.637 0.5 268.861 0.5C286.066 0.5 298.859 5.93396 307.349 14.2154C315.841 22.4995 320.063 33.6687 320.063 45.2095V58.6762C320.063 70.8605 311.201 77.4669 298.44 84.4495ZM115.916 169.998H60.6067C26.3305 169.998 9.4043 141.207 9.4043 118.074V54.5881C9.4043 31.455 26.3305 2.66429 60.6067 2.66429H115.916C150.192 2.66429 167.119 31.455 167.119 54.5881V118.074C167.119 141.207 150.192 169.998 115.916 169.998ZM76.2376 125.307H100.285C104.669 125.307 107.586 123.353 109.388 120.667C111.172 118.006 111.847 114.653 111.847 111.821V60.6C111.847 57.7681 111.172 54.4155 109.388 51.7546C107.586 49.0685 104.669 47.1143 100.285 47.1143H76.2376C71.8539 47.1143 68.9364 49.0685 67.1352 51.7546C65.3508 54.4155 64.6757 57.7681 64.6757 60.6V111.821C64.6757 114.653 65.3508 118.006 67.1352 120.667C68.9364 123.353 71.8539 125.307 76.2376 125.307Z" stroke="black"/>
<g filter="url(#filter0_d_504_24)">
<path d="M158.63 37.1605C160.178 36.2658 162.086 36.2658 163.634 37.1605L204.895 61.0091C206.441 61.9026 207.393 63.5526 207.393 65.338V113.045C207.393 114.83 206.441 116.48 204.895 117.374L163.634 141.222C162.086 142.117 160.178 142.117 158.63 141.222L117.368 117.374C115.823 116.48 114.871 114.83 114.871 113.045V65.338C114.871 63.5526 115.823 61.9026 117.368 61.0091L158.63 37.1605Z" fill="white"/>
<path d="M158.88 37.5934C160.273 36.7881 161.991 36.7881 163.384 37.5934L204.645 61.442C206.036 62.2461 206.893 63.7311 206.893 65.338V113.045C206.893 114.652 206.036 116.137 204.645 116.941L163.384 140.789C161.991 141.595 160.273 141.595 158.88 140.789L117.619 116.941C116.227 116.137 115.371 114.652 115.371 113.045V65.338C115.371 63.7311 116.227 62.2461 117.619 61.442L158.88 37.5934Z" stroke="black"/>
</g>
<rect x="134.833" y="67.9862" width="4.07441" height="4.07441" fill="black" stroke="black" stroke-width="0.25814"/>
<rect x="131.225" y="67.9862" width="4.07441" height="4.07441" fill="black" stroke="black" stroke-width="0.25814"/>
<rect x="126.891" y="72.3202" width="4.07441" height="4.07441" fill="black" stroke="black" stroke-width="0.25814"/>
<rect x="126.891" y="75.9289" width="4.07441" height="4.07441" fill="black" stroke="black" stroke-width="0.25814"/>
<rect x="126.891" y="80.2631" width="4.07441" height="4.07441" fill="black" stroke="black" stroke-width="0.25814"/>
<rect x="131.225" y="84.5971" width="4.07441" height="4.07441" fill="black" stroke="black" stroke-width="0.25814"/>
<rect x="134.833" y="91.8144" width="4.07441" height="4.07441" fill="black" stroke="black" stroke-width="0.25814"/>
<rect x="134.833" y="107.7" width="4.07441" height="4.07441" fill="black" stroke="black" stroke-width="0.25814"/>
<rect x="130.499" y="96.1484" width="4.07441" height="4.07441" fill="black" stroke="black" stroke-width="0.25814"/>
<rect x="139.168" y="96.1484" width="4.07441" height="4.07441" fill="black" stroke="black" stroke-width="0.25814"/>
<rect x="147.111" y="96.1484" width="4.07441" height="4.07441" fill="black" stroke="black" stroke-width="0.25814"/>
<rect x="155.774" y="96.1484" width="4.07441" height="4.07441" fill="black" stroke="black" stroke-width="0.25814"/>
<rect x="163.717" y="100.483" width="4.07441" height="4.07441" fill="black" stroke="black" stroke-width="0.25814"/>
<rect x="179.607" y="100.483" width="4.07441" height="4.07441" fill="black" stroke="black" stroke-width="0.25814"/>
<rect x="147.111" y="92.5397" width="4.07441" height="4.07441" fill="black" stroke="black" stroke-width="0.25814"/>
<rect x="155.774" y="92.5397" width="4.07441" height="4.07441" fill="black" stroke="black" stroke-width="0.25814"/>
<rect x="163.717" y="96.8739" width="4.07441" height="4.07441" fill="black" stroke="black" stroke-width="0.25814"/>
<rect x="179.607" y="96.8739" width="4.07441" height="4.07441" fill="black" stroke="black" stroke-width="0.25814"/>
<rect x="163.717" y="93.256" width="4.07441" height="4.07441" fill="black" stroke="black" stroke-width="0.25814"/>
<rect x="179.607" y="93.256" width="4.07441" height="4.07441" fill="black" stroke="black" stroke-width="0.25814"/>
<rect x="183.936" y="93.256" width="4.07441" height="4.07441" fill="black" stroke="black" stroke-width="0.25814"/>
<rect x="188.27" y="95.423" width="4.07441" height="4.07441" fill="black" stroke="black" stroke-width="0.25814"/>
<rect x="183.936" y="99.757" width="4.07441" height="4.07441" fill="black" stroke="black" stroke-width="0.25814"/>
<rect x="168.051" y="93.256" width="4.07441" height="4.07441" fill="black" stroke="black" stroke-width="0.25814"/>
<rect x="168.051" y="107.7" width="4.07441" height="4.07441" fill="black" stroke="black" stroke-width="0.25814"/>
<rect x="168.051" y="100.483" width="4.07441" height="4.07441" fill="black" stroke="black" stroke-width="0.25814"/>
<rect x="171.659" y="93.256" width="4.07441" height="4.07441" fill="black" stroke="black" stroke-width="0.25814"/>
<rect x="171.659" y="107.7" width="4.07441" height="4.07441" fill="black" stroke="black" stroke-width="0.25814"/>
<rect x="130.499" y="99.757" width="4.07441" height="4.07441" fill="black" stroke="black" stroke-width="0.25814"/>
<rect x="139.168" y="99.757" width="4.07441" height="4.07441" fill="black" stroke="black" stroke-width="0.25814"/>
<rect x="147.111" y="99.757" width="4.07441" height="4.07441" fill="black" stroke="black" stroke-width="0.25814"/>
<rect x="155.774" y="99.757" width="4.07441" height="4.07441" fill="black" stroke="black" stroke-width="0.25814"/>
<rect x="163.717" y="104.091" width="4.07441" height="4.07441" fill="black" stroke="black" stroke-width="0.25814"/>
<rect x="179.607" y="104.091" width="4.07441" height="4.07441" fill="black" stroke="black" stroke-width="0.25814"/>
<rect x="188.27" y="104.091" width="4.07441" height="4.07441" fill="black" stroke="black" stroke-width="0.25814"/>
<rect x="130.499" y="103.366" width="4.07441" height="4.07441" fill="black" stroke="black" stroke-width="0.25814"/>
<rect x="139.168" y="103.366" width="4.07441" height="4.07441" fill="black" stroke="black" stroke-width="0.25814"/>
<rect x="147.111" y="103.366" width="4.07441" height="4.07441" fill="black" stroke="black" stroke-width="0.25814"/>
<rect x="155.774" y="103.366" width="4.07441" height="4.07441" fill="black" stroke="black" stroke-width="0.25814"/>
<rect x="163.717" y="107.7" width="4.07441" height="4.07441" fill="black" stroke="black" stroke-width="0.25814"/>
<rect x="179.607" y="107.7" width="4.07441" height="4.07441" fill="black" stroke="black" stroke-width="0.25814"/>
<rect x="188.27" y="107.7" width="4.07441" height="4.07441" fill="black" stroke="black" stroke-width="0.25814"/>
<rect x="151.444" y="107.7" width="4.07441" height="4.07441" fill="black" stroke="black" stroke-width="0.25814"/>
<rect x="135.559" y="84.5971" width="4.07441" height="4.07441" fill="black" stroke="black" stroke-width="0.25814"/>
<rect x="135.559" y="80.2631" width="4.07441" height="4.07441" fill="black" stroke="black" stroke-width="0.25814"/>
<rect x="143.502" y="73.0412" width="4.07441" height="4.07441" fill="black" stroke="black" stroke-width="0.25814"/>
<rect x="151.444" y="73.0412" width="4.07441" height="4.07441" fill="black" stroke="black" stroke-width="0.25814"/>
<rect x="159.387" y="73.0412" width="4.07441" height="4.07441" fill="black" stroke="black" stroke-width="0.25814"/>
<rect x="176.719" y="73.0412" width="4.07441" height="4.07441" fill="black" stroke="black" stroke-width="0.25814"/>
<rect x="183.936" y="73.0412" width="4.07441" height="4.07441" fill="black" stroke="black" stroke-width="0.25814"/>
<rect x="163.717" y="75.9289" width="4.07441" height="4.07441" fill="black" stroke="black" stroke-width="0.25814"/>
<rect x="168.051" y="80.2631" width="4.07441" height="4.07441" fill="black" stroke="black" stroke-width="0.25814"/>
<rect x="172.385" y="75.9289" width="4.07441" height="4.07441" fill="black" stroke="black" stroke-width="0.25814"/>
<rect x="159.387" y="69.4279" width="4.07441" height="4.07441" fill="black" stroke="black" stroke-width="0.25814"/>
<rect x="176.719" y="69.4279" width="4.07441" height="4.07441" fill="black" stroke="black" stroke-width="0.25814"/>
<rect x="183.936" y="69.4279" width="4.07441" height="4.07441" fill="black" stroke="black" stroke-width="0.25814"/>
<rect x="188.27" y="69.4279" width="4.07441" height="4.07441" fill="black" stroke="black" stroke-width="0.25814"/>
<rect x="188.27" y="76.6545" width="4.07441" height="4.07441" fill="black" stroke="black" stroke-width="0.25814"/>
<rect x="188.27" y="83.8717" width="4.07441" height="4.07441" fill="black" stroke="black" stroke-width="0.25814"/>
<rect x="191.879" y="69.4279" width="4.07441" height="4.07441" fill="black" stroke="black" stroke-width="0.25814"/>
<rect x="191.879" y="83.8717" width="4.07441" height="4.07441" fill="black" stroke="black" stroke-width="0.25814"/>
<rect x="143.502" y="76.6545" width="4.07441" height="4.07441" fill="black" stroke="black" stroke-width="0.25814"/>
<rect x="151.444" y="76.6545" width="4.07441" height="4.07441" fill="black" stroke="black" stroke-width="0.25814"/>
<rect x="159.387" y="76.6545" width="4.07441" height="4.07441" fill="black" stroke="black" stroke-width="0.25814"/>
<rect x="176.719" y="76.6545" width="4.07441" height="4.07441" fill="black" stroke="black" stroke-width="0.25814"/>
<rect x="183.936" y="76.6545" width="4.07441" height="4.07441" fill="black" stroke="black" stroke-width="0.25814"/>
<rect x="143.502" y="80.2631" width="4.07441" height="4.07441" fill="black" stroke="black" stroke-width="0.25814"/>
<rect x="151.444" y="80.2631" width="4.07441" height="4.07441" fill="black" stroke="black" stroke-width="0.25814"/>
<rect x="159.387" y="80.2631" width="4.07441" height="4.07441" fill="black" stroke="black" stroke-width="0.25814"/>
<rect x="176.719" y="80.2631" width="4.07441" height="4.07441" fill="black" stroke="black" stroke-width="0.25814"/>
<rect x="183.936" y="80.2631" width="4.07441" height="4.07441" fill="black" stroke="black" stroke-width="0.25814"/>
<rect x="143.502" y="83.8717" width="4.07441" height="4.07441" fill="black" stroke="black" stroke-width="0.25814"/>
<rect x="151.444" y="83.8717" width="4.07441" height="4.07441" fill="black" stroke="black" stroke-width="0.25814"/>
<rect x="159.387" y="83.8717" width="4.07441" height="4.07441" fill="black" stroke="black" stroke-width="0.25814"/>
<rect x="176.719" y="83.8717" width="4.07441" height="4.07441" fill="black" stroke="black" stroke-width="0.25814"/>
<rect x="183.936" y="83.8717" width="4.07441" height="4.07441" fill="black" stroke="black" stroke-width="0.25814"/>
<rect x="147.831" y="68.7116" width="4.07441" height="4.07441" fill="black" stroke="black" stroke-width="0.25814"/>
<defs>
<filter id="filter0_d_504_24" x="107.87" y="33.4895" width="106.523" height="119.404" filterUnits="userSpaceOnUse" color-interpolation-filters="sRGB">
<feFlood flood-opacity="0" result="BackgroundImageFix"/>
<feColorMatrix in="SourceAlpha" type="matrix" values="0 0 0 0 0 0 0 0 0 0 0 0 0 0 0 0 0 0 127 0" result="hardAlpha"/>
<feOffset dy="4"/>
<feGaussianBlur stdDeviation="3.5"/>
<feComposite in2="hardAlpha" operator="out"/>
<feColorMatrix type="matrix" values="0 0 0 0 0 0 0 0 0 0 0 0 0 0 0 0 0 0 0.35 0"/>
<feBlend mode="normal" in2="BackgroundImageFix" result="effect1_dropShadow_504_24"/>
<feBlend mode="normal" in="SourceGraphic" in2="effect1_dropShadow_504_24" result="shape"/>
</filter>
<linearGradient id="paint0_linear_504_24" x1="-940.937" y1="-11.0492" x2="293.586" y2="157.403" gradientUnits="userSpaceOnUse">
<stop stop-color="#1C0477"/>
<stop offset="1" stop-color="#D11D6F"/>
</linearGradient>
<linearGradient id="paint1_linear_504_24" x1="-932.604" y1="-18.192" x2="301.92" y2="150.26" gradientUnits="userSpaceOnUse">
<stop stop-color="#1C0477"/>
<stop offset="1" stop-color="#D11D6F"/>
</linearGradient>
<linearGradient id="paint2_linear_504_24" x1="-932.604" y1="-18.192" x2="301.92" y2="150.26" gradientUnits="userSpaceOnUse">
<stop stop-color="#4415FF"/>
<stop offset="1" stop-color="#D11D6F"/>
</linearGradient>
</defs>
</svg>
